<svg width="35" height="28" viewBox="0 0 35 28" fill="none" xmlns="http://www.w3.org/2000/svg">
<g clip-path="url(#clip0_11_81)">
<mask id="mask0_11_81" style="mask-type:luminance" maskUnits="userSpaceOnUse" x="0" y="0" width="35" height="28">
<path d="M35 0H0V28H35V0Z" fill="white"/>
</mask>
<g mask="url(#mask0_11_81)">
<path d="M29.629 2.49343C27.3982 1.43635 25.006 0.657542 22.5049 0.211487C22.4593 0.202878 22.4138 0.224392 22.3903 0.26742C22.0827 0.832517 21.7419 1.56973 21.5033 2.14918C18.8131 1.73325 16.1367 1.73325 13.5017 2.14918C13.263 1.55685 12.9099 0.832517 12.6008 0.26742C12.5774 0.225827 12.5319 0.204314 12.4863 0.211487C9.98653 0.656117 7.59436 1.43492 5.3622 2.49343C5.34287 2.50203 5.32631 2.51639 5.31532 2.53502C0.777863 9.53573 -0.465136 16.3644 0.144638 23.1083C0.147397 23.1413 0.165331 23.1729 0.190164 23.193C3.18385 25.4634 6.08374 26.8418 8.92978 27.7554C8.97533 27.7697 9.02359 27.7525 9.05258 27.7138C9.72581 26.7643 10.3259 25.7632 10.8405 24.7104C10.8709 24.6488 10.8419 24.5756 10.7798 24.5512C9.8279 24.1783 8.9215 23.7236 8.04961 23.2073C7.98064 23.1657 7.97512 23.0639 8.03856 23.0151C8.22204 22.8731 8.40557 22.7254 8.58077 22.5762C8.61246 22.549 8.65663 22.5432 8.6939 22.5604C14.4219 25.2612 20.6231 25.2612 26.2835 22.5604C26.3207 22.5418 26.3649 22.5475 26.398 22.5748C26.5732 22.7239 26.7567 22.8731 26.9416 23.0151C27.005 23.0639 27.0009 23.1657 26.9319 23.2073C26.06 23.7337 25.1536 24.1783 24.2003 24.5498C24.1383 24.5742 24.1107 24.6488 24.141 24.7104C24.6666 25.7617 25.2667 26.7629 25.9276 27.7124C25.9552 27.7525 26.0048 27.7697 26.0504 27.7554C28.9102 26.8418 31.8101 25.4634 34.8038 23.193C34.83 23.1729 34.8465 23.1428 34.8493 23.1098C35.5791 15.313 33.627 8.54036 29.6745 2.53644C29.6648 2.51639 29.6483 2.50203 29.629 2.49343ZM11.6959 19.002C9.97135 19.002 8.5504 17.3669 8.5504 15.3589C8.5504 13.3509 9.9438 11.7159 11.6959 11.7159C13.4617 11.7159 14.8689 13.3653 14.8413 15.3589C14.8413 17.3669 13.4479 19.002 11.6959 19.002ZM23.3257 19.002C21.6012 19.002 20.1803 17.3669 20.1803 15.3589C20.1803 13.3509 21.5736 11.7159 23.3257 11.7159C25.0915 11.7159 26.4987 13.3653 26.4711 15.3589C26.4711 17.3669 25.0915 19.002 23.3257 19.002Z" fill="white"/>
</g>
</g>
<defs>
<clipPath id="clip0_11_81">
<rect width="35" height="28" fill="white"/>
</clipPath>
</defs>
</svg>
