<?xml version="1.0" encoding="utf-8"?>
<!-- Generator: Adobe Illustrator 26.2.1, SVG Export Plug-In . SVG Version: 6.00 Build 0)  -->
<!DOCTYPE svg PUBLIC "-//W3C//DTD SVG 1.1//EN" "http://www.w3.org/Graphics/SVG/1.1/DTD/svg11.dtd" [
	<!ENTITY ns_extend "http://ns.adobe.com/Extensibility/1.0/">
	<!ENTITY ns_ai "http://ns.adobe.com/AdobeIllustrator/10.0/">
	<!ENTITY ns_graphs "http://ns.adobe.com/Graphs/1.0/">
	<!ENTITY ns_vars "http://ns.adobe.com/Variables/1.0/">
	<!ENTITY ns_imrep "http://ns.adobe.com/ImageReplacement/1.0/">
	<!ENTITY ns_sfw "http://ns.adobe.com/SaveForWeb/1.0/">
	<!ENTITY ns_custom "http://ns.adobe.com/GenericCustomNamespace/1.0/">
	<!ENTITY ns_adobe_xpath "http://ns.adobe.com/XPath/1.0/">
]>
<svg version="1.1" id="Layer_1" xmlns:x="&ns_extend;" xmlns:i="&ns_ai;" xmlns:graph="&ns_graphs;"
	 xmlns="http://www.w3.org/2000/svg" xmlns:xlink="http://www.w3.org/1999/xlink" x="0px" y="0px" viewBox="51.9,36.3 250.19999 289.79999"
	 xml:space="preserve">
<style type="text/css">
	.st0{fill:#5E3F29;}
	.st1{fill:#7CC242;}
	.st2{fill:#7C8442;}
	.st3{fill:#43FF57;}
	.st4{fill:#98CC5F;}
	.st5{fill:#8FC658;}
	.st6{fill:#87BD50;}
	.st7{fill:#9ACE61;}
	.st8{fill:#9DCE63;}
	.st9{fill:#B8E277;}
	.st10{fill:#8DC358;}
	.st11{fill:#A6D86A;}
	.st12{fill:#89BF54;}
	.st13{fill:#82B54D;}
	.st14{fill:#A8DD6B;}
	.st15{fill:#A0D264;}
	.st16{fill:#96CC5F;}
	.st17{fill:#96C95D;}
	.st18{fill:#97CB5E;}
	.st19{fill:#AADC6D;}
	.st20{fill:#97C95D;}
	.st21{fill:#8DC454;}
	.st22{fill:#AEDD70;}
	.st23{fill:#92CB5F;}
	.st24{fill:#93C95C;}
	.st25{fill:#9DD162;}
	.st26{fill:#85B94F;}
	.st27{fill:#A4D466;}
	.st28{fill:#9BCC60;}
	.st29{fill:#8FC75B;}
	.st30{fill:#A5D96A;}
	.st31{fill:#87BD52;}
	.st32{fill:#C2E780;}
	.st33{fill:#A2D365;}
	.st34{fill:#8CC257;}
	.st35{fill:#AFDC70;}
	.st36{fill:#B7E176;}
	.st37{fill:#94CA5F;}
	.st38{fill:#A9DE6D;}
	.st39{fill:#8BC153;}
	.st40{fill:#B1E075;}
	.st41{fill:#83B44F;}
	.st42{fill:#94CA5D;}
	.st43{fill:#9CCB60;}
	.st44{fill:#9ED064;}
	.st45{fill:#90C65D;}
	.st46{fill:#B9E679;}
	.st47{fill:#A4D666;}
	.st48{fill:#91CA5C;}
	.st49{fill:#BCE47B;}
	.st50{fill:#BAE579;}
	.st51{fill:#8EC457;}
	.st52{fill:#88BB4F;}
	.st53{fill:#B6E074;}
	.st54{fill:#8DC356;}
	.st55{fill:#90C759;}
	.st56{fill:#84B74F;}
	.st57{fill:#B1E173;}
	.st58{fill:#A4D668;}
	.st59{fill:#9CD363;}
	.st60{fill:#AFDE71;}
	.st61{fill:#B6E377;}
	.st62{fill:#A9DA6E;}
	.st63{fill:#92C659;}
	.st64{fill:#8EBF53;}
	.st65{fill:#99CD60;}
	.st66{fill:#ADDF73;}
	.st67{fill:#ACDE70;}
	.st68{fill:#91C556;}
	.st69{fill:#B0DD71;}
	.st70{fill:#8CC056;}
	.st71{fill:#80B54F;}
	.st72{fill:#A0CF64;}
	.st73{fill:#9ACE5F;}
	.st74{fill:#9CD265;}
	.st75{fill:#8DC25A;}
	.st76{fill:#AADB6F;}
	.st77{fill:#A0D266;}
	.st78{fill:#90C65B;}
	.st79{fill:#92C55F;}
	.st80{fill:#9FCE63;}
	.st81{fill:#98CC5D;}
	.st82{fill:#8FC258;}
	.st83{fill:#99CB5F;}
	.st84{fill:#8ABD55;}
	.st85{fill:#89BF56;}
	.st86{fill:#A3D566;}
	.st87{fill:#A5D86C;}
	.st88{fill:#A9D969;}
	.st89{fill:#80B64D;}
	.st90{fill:#8DC059;}
	.st91{fill:#95CC5C;}
	.st92{fill:#92C55B;}
	.st93{fill:#8BC659;}
	.st94{fill:#BEE67B;}
	.st95{fill:#97CA60;}
	.st96{fill:#ABDA6F;}
	.st97{fill:#93C758;}
	.st98{fill:#93C95A;}
	.st99{fill:#A8D76C;}
	.st100{fill:#94C95A;}
	.st101{fill:#92C85A;}
	.st102{fill:#9BD061;}
	.st103{fill:#C2E87E;}
	.st104{fill:#7CB14A;}
	.st105{fill:#ADDC6F;}
	.st106{fill:#8DC155;}
	.st107{fill:#B0DF74;}
	.st108{fill:#9FD163;}
	.st109{fill:#85B54E;}
	.st110{fill:#B5E477;}
	.st111{fill:#8ABE51;}
	.st112{fill:#9BCF63;}
	.st113{fill:#90C85C;}
	.st114{fill:#A4D56A;}
	.st115{fill:#BEE87F;}
	.st116{fill:#B5E278;}
	.st117{fill:#ACDE72;}
	.st118{fill:#8ABB52;}
	.st119{fill:#ABDD6F;}
	.st120{fill:#B0DF72;}
	.st121{fill:#82B54B;}
	.st122{fill:#8EC459;}
	.st123{fill:#9ED062;}
	.st124{fill:#BFE97E;}
	.st125{fill:#A2D367;}
	.st126{fill:#8FC256;}
	.st127{fill:#90C757;}
	.st128{fill:#A7D669;}
	.st129{fill:#88BF51;}
	.st130{fill:#95CB5E;}
	.st131{fill:#86BA50;}
	.st132{display:none;}
	.st133{display:inline;fill:none;stroke:#000000;stroke-width:0.6894;stroke-miterlimit:10;}
	.st134{fill:#B38658;}
	.st135{fill:#5C4028;}
	.st136{fill:#5C4126;}
	.st137{fill:#613E26;}
	.st138{fill:#6C9B40;}
	.st139{fill:#67953F;}
	.st140{fill:#608A33;}
	.st141{fill:#9A6D43;}
	.st142{fill:#B78559;}
	.st143{fill:#5D3E26;}
	.st144{fill:#9B6D46;}
	.st145{fill:#9B6E44;}
	.st146{fill:#81AF4C;}
	.st147{fill:#77A443;}
	.st148{fill:#80AE4C;}
	.st149{fill:#68923B;}
	.st150{fill:#6F9B41;}
	.st151{fill:#85B550;}
	.st152{fill:#66913A;}
	.st153{fill:#6B9943;}
	.st154{fill:#5E4028;}
	.st155{fill:#6D6F6F;}
	.st156{fill:#9E6B45;}
	.st157{fill:#5F4024;}
	.st158{fill:#7F5739;}
	.st159{fill:#5E4026;}
	.st160{fill:#B88456;}
	.st161{fill:#7D5736;}
	.st162{fill:#966E4B;}
	.st163{fill:#7E5636;}
	.st164{fill:#888588;}
	.st165{fill:#805534;}
	.st166{fill:#9D6D46;}
	.st167{fill:#5F3F26;}
	.st168{fill:#7F5737;}
	.st169{fill:#7AA849;}
	.st170{fill:#709F41;}
	.st171{fill:#6E9D40;}
	.st172{fill:#6D9C3F;}
	.st173{fill:#679339;}
	.st174{fill:#51792C;}
	.st175{fill:#658F35;}
	.st176{fill:#638F35;}
	.st177{fill:#5F8A37;}
	.st178{fill:#5F8834;}
	.st179{fill:#628D38;}
	.st180{fill:#628E36;}
	.st181{fill:#67983C;}
	.st182{fill:#608F36;}
	.st183{fill:#5F8A35;}
	.st184{fill:#6EA03F;}
	.st185{fill:#68943A;}
	.st186{fill:#75A545;}
	.st187{fill:#956944;}
	.st188{fill:#5E3E22;}
	.st189{fill:#69933A;}
	.st190{fill:#66953A;}
	.st191{fill:#9A6C45;}
	.st192{fill:#5A3E23;}
	.st193{fill:#888584;}
	.st194{fill:#5F8A33;}
	.st195{fill:#7DAA49;}
	.st196{fill:#5E8C34;}
	.st197{fill:#7BAB4B;}
	.st198{fill:#639139;}
	.st199{fill:#6F9B3F;}
	.st200{fill:#5E4024;}
	.st201{fill:#679337;}
	.st202{fill:#69953B;}
	.st203{fill:#6F6F6D;}
	.st204{fill:#78A548;}
	.st205{fill:#749E44;}
	.st206{fill:#996B44;}
	.st207{fill:#7D5638;}
	.st208{fill:#55802F;}
	.st209{fill:#603E22;}
	.st210{fill:#996B46;}
	.st211{fill:#838685;}
	.st212{fill:#613F24;}
	.st213{fill:#64442A;}
	.st214{fill:#412D1B;}
	.st215{fill:#4F3623;}
	.st216{fill:#503621;}
	.st217{fill:#312114;}
	.st218{fill:#422D19;}
	.st219{fill:#322014;}
	.st220{fill:#64462B;}
	.st221{fill:#324C1D;}
	.st222{fill:#33501D;}
	.st223{fill:#2E4316;}
	.st224{fill:#64432C;}
	.st225{fill:#3E2F1B;}
	.st226{fill:#3F2E1B;}
	.st227{fill:#2F2116;}
	.st228{fill:#3D5B21;}
	.st229{fill:#3D5620;}
	.st230{fill:#2F4919;}
	.st231{fill:#3D6324;}
	.st232{fill:#36501C;}
	.st233{fill:#364E1F;}
	.st234{fill:#322215;}
	.st235{fill:#412D19;}
	.st236{fill:#513720;}
	.st237{fill:#503822;}
	.st238{fill:#311F13;}
	.st239{fill:#60442B;}
	.st240{fill:#3B383B;}
	.st241{fill:#422D20;}
	.st242{fill:#48474C;}
	.st243{fill:#3A5720;}
	.st244{fill:#355420;}
	.st245{fill:#374F1C;}
	.st246{fill:#324C1B;}
	.st247{fill:#324F18;}
	.st248{fill:#31451A;}
	.st249{fill:#2E4517;}
	.st250{fill:#2A3E17;}
	.st251{fill:#314918;}
	.st252{fill:#365320;}
	.st253{fill:#304A1A;}
	.st254{fill:#3B571E;}
	.st255{fill:#344E1F;}
	.st256{fill:#334E1A;}
	.st257{fill:#2F461C;}
	.st258{fill:#4F3721;}
	.st259{fill:#523521;}
	.st260{fill:#365020;}
	.st261{fill:#64452D;}
	.st262{fill:#4D3522;}
	.st263{fill:#47444A;}
	.st264{fill:#50361F;}
	.st265{fill:#61422F;}
	.st266{fill:#412D1D;}
	.st267{fill:#314B1B;}
	.st268{fill:#2D4816;}
	.st269{fill:#2E4615;}
	.st270{fill:#3C393C;}
	.st271{fill:#354D1C;}
	.st272{fill:#36531E;}
	.st273{fill:#3A551F;}
	.st274{fill:#312112;}
	.st275{fill:#51341E;}
	.st276{fill:#2A4316;}
	.st277{fill:#533421;}
	.st278{fill:#46454A;}
	.st279{fill:#513722;}
</style>
<metadata>
	<sfw  xmlns="&ns_sfw;">
		<slices></slices>
		<sliceSourceBounds  bottomLeftOrigin="true" height="290.6" width="251.6" x="51.2" y="34.1"></sliceSourceBounds>
	</sfw>
</metadata>
<path class="st0" d="M302.1,253.9v-145L177,36.3L51.9,108.9l0,144.8L177,326.1"/>
<g id="Layer_1_00000021841079169502914270000009771977702660556219_">
</g>
<g>
	<path class="st1" d="M208.2,199.5c0.1,0,0.2-0.1,0.2-0.4C208.2,199.3,208.1,199.5,208.2,199.5z"/>
	<polygon class="st1" points="51.9,108.9 51.9,136 59.8,140.5 59.8,131.5 67.6,136 67.6,145.1 83.2,154.1 83.2,163.2 91,167.7 
		91,140.6 98.8,145.1 98.8,163.2 106.7,167.7 106.7,158.7 114.5,163.2 114.5,181.3 122.3,185.9 122.3,176.8 130.1,181.3 
		130.1,190.4 137.9,194.9 137.9,185.9 145.7,190.4 145.7,181.4 153.6,185.9 153.6,194.9 169.2,204 169.2,195 177,199.5 177,108.9 	
		"/>
	<path class="st2" d="M177,108.9v90.6v9l7.8-4.5v-9l7.8-4.6v9.1l7.8-4.5l7.8-4.6c0,0,0.6,7.1,0.2,8.7c1.4-1.1,7.6-4.1,7.6-4.1v-27.2
		l7.8-4.5v18.1l7.8-4.5v-9.1l7.9-4.5v18.1l7.8-4.5v-9.1l7.8-4.5v9l7.8-4.5v-9.1l7.8-4.5v-9.1l7.9-4.5v9.1l15.6-9.1v-9.1l7.9-4.5
		v-18.1H177z"/>
</g>
<polygon class="st3" points="51.9,108.9 177,36.3 302.1,108.9 177,181.4 "/>
<g id="Layer_2_00000131341862138870482140000017132561876856992939_">
	<g>
		<polygon class="st4" points="192.6,136.1 200.4,140.6 208.3,136.1 200.4,131.5 		"/>
		<polygon class="st5" points="200.4,131.5 208.3,136.1 216.1,131.5 208.3,127 		"/>
		<polygon class="st6" points="169.2,140.6 161.4,145.1 169.2,149.7 177,145.1 		"/>
		<polygon class="st7" points="208.3,127 216.1,131.5 223.9,127 216.1,122.5 		"/>
		<polygon class="st8" points="208.3,90.7 216.1,86.2 208.3,81.7 200.4,86.2 		"/>
		<polygon class="st9" points="177,145.1 184.8,149.7 192.6,145.1 184.8,140.6 		"/>
		<polygon class="st4" points="184.8,140.6 192.6,145.1 200.4,140.6 192.6,136.1 		"/>
		<polygon class="st7" points="216.1,122.5 223.9,127 231.7,122.5 223.9,117.9 		"/>
		<polygon class="st10" points="223.9,99.8 231.7,95.3 223.9,90.7 216.1,95.3 		"/>
		<polygon class="st11" points="216.1,131.5 223.9,136.1 231.7,131.5 223.9,127 		"/>
		<polygon class="st12" points="216.1,95.3 223.9,90.7 216.1,86.2 208.3,90.7 		"/>
		<polygon class="st13" points="223.9,117.9 231.7,122.5 239.5,117.9 231.7,113.4 		"/>
		<polygon class="st14" points="231.7,113.4 239.5,117.9 247.3,113.4 239.5,108.9 		"/>
		<polygon class="st15" points="239.5,108.9 247.3,104.3 239.5,99.8 231.7,104.3 		"/>
		<polygon class="st16" points="247.3,113.4 255.2,108.9 247.3,104.3 239.5,108.9 		"/>
		<polygon class="st11" points="169.2,149.7 177,154.2 184.8,149.7 177,145.1 		"/>
		<polygon class="st17" points="161.4,136.1 153.5,140.6 161.4,145.1 169.2,140.6 		"/>
		<polygon class="st18" points="137.9,95.3 130.1,90.7 122.3,95.3 130.1,99.8 		"/>
		<polygon class="st19" points="130.1,99.8 122.3,95.3 114.5,99.8 122.3,104.3 		"/>
		<polygon class="st20" points="161.4,81.7 153.5,77.1 145.7,81.7 153.5,86.2 		"/>
		<polygon class="st19" points="169.2,77.1 161.4,72.6 153.5,77.1 161.4,81.7 		"/>
		<polygon class="st19" points="122.3,104.3 114.5,99.8 106.6,104.3 114.5,108.9 		"/>
		<polygon class="st21" points="177,72.6 169.2,68.1 161.4,72.6 169.2,77.1 		"/>
		<polygon class="st22" points="145.7,90.7 137.9,86.2 130.1,90.7 137.9,95.3 		"/>
		<polygon class="st23" points="106.6,104.3 98.8,108.9 106.6,113.4 114.5,108.9 		"/>
		<polygon class="st24" points="145.7,127 137.9,131.5 145.7,136.1 153.5,131.5 		"/>
		<polygon class="st25" points="153.5,131.5 145.7,136.1 153.5,140.6 161.4,136.1 		"/>
		<polygon class="st26" points="137.9,122.5 130.1,127 137.9,131.5 145.7,127 		"/>
		<polygon class="st27" points="114.5,108.9 106.6,113.4 114.5,117.9 122.3,113.4 		"/>
		<polygon class="st28" points="122.3,113.4 114.5,117.9 122.3,122.5 130.1,117.9 		"/>
		<polygon class="st29" points="130.1,117.9 122.3,122.5 130.1,127 137.9,122.5 		"/>
		<polygon class="st20" points="153.5,86.2 145.7,81.7 137.9,86.2 145.7,90.7 		"/>
		<polygon class="st30" points="161.4,145.1 153.5,149.7 161.4,154.2 169.2,149.7 		"/>
		<polygon class="st25" points="145.7,136.1 137.9,140.6 145.7,145.1 153.5,140.6 		"/>
		<polygon class="st31" points="106.6,113.4 98.8,117.9 106.6,122.5 114.5,117.9 		"/>
		<polygon class="st30" points="137.9,131.5 130.1,136.1 137.9,140.6 145.7,136.1 		"/>
		<polygon class="st32" points="130.1,127 122.3,131.5 130.1,136.1 137.9,131.5 		"/>
		<polygon class="st33" points="114.5,117.9 106.6,122.5 114.5,127 122.3,122.5 		"/>
		<polygon class="st34" points="122.3,122.5 114.5,127 122.3,131.5 130.1,127 		"/>
		<polygon class="st35" points="153.5,140.6 145.7,145.1 153.5,149.7 161.4,145.1 		"/>
		<polygon class="st5" points="192.6,145.1 200.4,149.7 208.3,145.1 200.4,140.6 		"/>
		<polygon class="st36" points="200.4,140.6 208.3,145.1 216.1,140.6 208.3,136.1 		"/>
		<polygon class="st11" points="169.2,149.7 161.4,154.2 169.2,158.7 177,154.2 		"/>
		<polygon class="st7" points="208.3,136.1 216.1,140.6 223.9,136.1 216.1,131.5 		"/>
		<polygon class="st37" points="169.2,158.7 177,163.3 184.8,158.7 177,154.2 		"/>
		<polygon class="st38" points="177,154.2 184.8,158.7 192.6,154.2 184.8,149.7 		"/>
		<polygon class="st39" points="184.8,149.7 192.6,154.2 200.4,149.7 192.6,145.1 		"/>
		<polygon class="st13" points="91,104.3 83.2,108.9 91,113.4 98.8,108.9 		"/>
		<polygon class="st40" points="169.2,68.1 161.4,63.5 153.5,68.1 161.4,72.6 		"/>
		<polygon class="st41" points="161.4,72.6 153.5,68.1 145.7,72.6 153.5,77.1 		"/>
		<polygon class="st42" points="177,63.5 169.2,59 161.4,63.5 169.2,68.1 		"/>
		<polygon class="st19" points="153.5,77.1 145.7,72.6 137.9,77.1 145.7,81.7 		"/>
		<polygon class="st33" points="192.6,81.7 200.4,77.1 192.6,72.6 184.8,77.1 		"/>
		<polygon class="st15" points="177,72.6 184.8,68.1 177,63.5 169.2,68.1 		"/>
		<polygon class="st43" points="184.8,77.1 192.6,72.6 184.8,68.1 177,72.6 		"/>
		<polygon class="st44" points="98.8,108.9 91,113.4 98.8,117.9 106.6,113.4 		"/>
		<polygon class="st34" points="106.6,104.3 98.8,99.8 91,104.3 98.8,108.9 		"/>
		<polygon class="st45" points="114.5,99.8 106.6,95.3 98.8,99.8 106.6,104.3 		"/>
		<polygon class="st31" points="200.4,86.2 208.3,81.7 200.4,77.1 192.6,81.7 		"/>
		<polygon class="st46" points="130.1,90.7 122.3,86.2 114.5,90.7 122.3,95.3 		"/>
		<polygon class="st46" points="137.9,86.2 130.1,81.7 122.3,86.2 130.1,90.7 		"/>
		<polygon class="st19" points="145.7,81.7 137.9,77.1 130.1,81.7 137.9,86.2 		"/>
		<polygon class="st47" points="122.3,95.3 114.5,90.7 106.6,95.3 114.5,99.8 		"/>
		<polygon class="st18" points="231.7,104.3 239.5,99.8 231.7,95.3 223.9,99.8 		"/>
		<polygon class="st15" points="153.5,104.3 145.7,99.8 137.9,104.3 145.7,108.9 		"/>
		<polygon class="st48" points="177,99.8 184.8,95.3 177,90.7 169.2,95.3 		"/>
		<polygon class="st49" points="161.4,117.9 153.5,122.5 161.4,127 169.2,122.5 		"/>
		<polygon class="st8" points="153.5,113.4 145.7,117.9 153.5,122.5 161.4,117.9 		"/>
		<polygon class="st50" points="137.9,104.3 130.1,108.9 137.9,113.4 145.7,108.9 		"/>
		<polygon class="st25" points="208.3,108.9 216.1,104.3 208.3,99.8 200.4,104.3 		"/>
		<polygon class="st51" points="177,90.7 169.2,86.2 161.4,90.7 169.2,95.3 		"/>
		<polygon class="st52" points="169.2,95.3 161.4,90.7 153.5,95.3 161.4,99.8 		"/>
		<polygon class="st28" points="145.7,108.9 137.9,113.4 145.7,117.9 153.5,113.4 		"/>
		<polygon class="st53" points="200.4,113.4 208.3,117.9 216.1,113.4 208.3,108.9 		"/>
		<polygon class="st54" points="192.6,117.9 200.4,122.5 208.3,117.9 200.4,113.4 		"/>
		<polygon class="st55" points="216.1,113.4 223.9,108.9 216.1,104.3 208.3,108.9 		"/>
		<polygon class="st54" points="184.8,122.5 192.6,127 200.4,122.5 192.6,117.9 		"/>
		<polygon class="st14" points="169.2,131.5 177,136.1 184.8,131.5 177,127 		"/>
		<polygon class="st56" points="169.2,122.5 161.4,127 169.2,131.5 177,127 		"/>
		<polygon class="st7" points="177,127 184.8,131.5 192.6,127 184.8,122.5 		"/>
		<polygon class="st34" points="161.4,99.8 153.5,95.3 145.7,99.8 153.5,104.3 		"/>
		<polygon class="st12" points="184.8,104.3 192.6,99.8 184.8,95.3 177,99.8 		"/>
		<polygon class="st57" points="169.2,104.3 161.4,99.8 153.5,104.3 161.4,108.9 		"/>
		<polygon class="st51" points="177,108.9 184.8,104.3 177,99.8 169.2,104.3 		"/>
		<polygon class="st58" points="169.2,104.3 161.4,108.9 169.2,113.4 177,108.9 		"/>
		<polygon class="st59" points="184.8,113.4 192.6,108.9 184.8,104.3 177,108.9 		"/>
		<polygon class="st60" points="153.5,104.3 145.7,108.9 153.5,113.4 161.4,108.9 		"/>
		<polygon class="st61" points="169.2,113.4 177,117.9 184.8,113.4 177,108.9 		"/>
		<polygon class="st62" points="177,99.8 169.2,95.3 161.4,99.8 169.2,104.3 		"/>
		<polygon class="st63" points="200.4,113.4 208.3,108.9 200.4,104.3 192.6,108.9 		"/>
		<polygon class="st61" points="184.8,113.4 192.6,117.9 200.4,113.4 192.6,108.9 		"/>
		<polygon class="st51" points="192.6,108.9 200.4,104.3 192.6,99.8 184.8,104.3 		"/>
		<polygon class="st61" points="177,117.9 184.8,122.5 192.6,117.9 184.8,113.4 		"/>
		<polygon class="st64" points="161.4,108.9 153.5,113.4 161.4,117.9 169.2,113.4 		"/>
		<polygon class="st5" points="169.2,113.4 161.4,117.9 169.2,122.5 177,117.9 		"/>
		<polygon class="st65" points="169.2,122.5 177,127 184.8,122.5 177,117.9 		"/>
		<polygon class="st21" points="177,81.7 169.2,77.1 161.4,81.7 169.2,86.2 		"/>
		<polygon class="st7" points="192.6,127 200.4,131.5 208.3,127 200.4,122.5 		"/>
		<polygon class="st54" points="200.4,122.5 208.3,127 216.1,122.5 208.3,117.9 		"/>
		<polygon class="st66" points="208.3,117.9 216.1,122.5 223.9,117.9 216.1,113.4 		"/>
		<polygon class="st10" points="216.1,113.4 223.9,117.9 231.7,113.4 223.9,108.9 		"/>
		<polygon class="st6" points="169.2,140.6 177,145.1 184.8,140.6 177,136.1 		"/>
		<polygon class="st10" points="177,136.1 184.8,140.6 192.6,136.1 184.8,131.5 		"/>
		<polygon class="st67" points="184.8,131.5 192.6,136.1 200.4,131.5 192.6,127 		"/>
		<polygon class="st68" points="192.6,90.7 200.4,86.2 192.6,81.7 184.8,86.2 		"/>
		<polygon class="st17" points="169.2,131.5 161.4,136.1 169.2,140.6 177,136.1 		"/>
		<polygon class="st69" points="200.4,95.3 208.3,90.7 200.4,86.2 192.6,90.7 		"/>
		<polygon class="st14" points="231.7,113.4 239.5,108.9 231.7,104.3 223.9,108.9 		"/>
		<polygon class="st40" points="184.8,86.2 192.6,81.7 184.8,77.1 177,81.7 		"/>
		<polygon class="st49" points="208.3,99.8 216.1,95.3 208.3,90.7 200.4,95.3 		"/>
		<polygon class="st70" points="223.9,108.9 231.7,104.3 223.9,99.8 216.1,104.3 		"/>
		<polygon class="st71" points="216.1,104.3 223.9,99.8 216.1,95.3 208.3,99.8 		"/>
		<polygon class="st65" points="169.2,86.2 161.4,81.7 153.5,86.2 161.4,90.7 		"/>
		<polygon class="st63" points="200.4,104.3 208.3,99.8 200.4,95.3 192.6,99.8 		"/>
		<polygon class="st40" points="177,81.7 184.8,77.1 177,72.6 169.2,77.1 		"/>
		<polygon class="st22" points="153.5,95.3 145.7,90.7 137.9,95.3 145.7,99.8 		"/>
		<polygon class="st20" points="161.4,90.7 153.5,86.2 145.7,90.7 153.5,95.3 		"/>
		<polygon class="st15" points="192.6,99.8 200.4,95.3 192.6,90.7 184.8,95.3 		"/>
		<polygon class="st15" points="177,90.7 184.8,86.2 177,81.7 169.2,86.2 		"/>
		<polygon class="st15" points="184.8,95.3 192.6,90.7 184.8,86.2 177,90.7 		"/>
		<polygon class="st72" points="137.9,113.4 130.1,117.9 137.9,122.5 145.7,117.9 		"/>
		<polygon class="st73" points="161.4,127 153.5,131.5 161.4,136.1 169.2,131.5 		"/>
		<polygon class="st24" points="145.7,117.9 137.9,122.5 145.7,127 153.5,122.5 		"/>
		<polygon class="st18" points="145.7,99.8 137.9,95.3 130.1,99.8 137.9,104.3 		"/>
		<polygon class="st74" points="153.5,122.5 145.7,127 153.5,131.5 161.4,127 		"/>
		<polygon class="st75" points="137.9,104.3 130.1,99.8 122.3,104.3 130.1,108.9 		"/>
		<polygon class="st75" points="130.1,108.9 122.3,113.4 130.1,117.9 137.9,113.4 		"/>
		<polygon class="st27" points="122.3,104.3 114.5,108.9 122.3,113.4 130.1,108.9 		"/>
		<polygon class="st31" points="91,113.4 83.2,117.9 91,122.5 98.8,117.9 		"/>
		<polygon class="st76" points="91,122.5 83.2,127 91,131.5 98.8,127 		"/>
		<polygon class="st33" points="98.8,127 91,131.5 98.8,136.1 106.6,131.5 		"/>
		<polygon class="st77" points="192.6,63.5 200.4,59 192.6,54.5 184.8,59 		"/>
		<polygon class="st78" points="75.4,113.4 67.6,117.9 75.4,122.5 83.2,117.9 		"/>
		<polygon class="st79" points="59.7,104.3 51.9,108.9 59.7,113.4 67.6,108.9 		"/>
		<polygon class="st80" points="106.6,131.5 98.8,136.1 106.6,140.6 114.5,136.1 		"/>
		<polygon class="st15" points="67.6,108.9 59.7,113.4 67.6,117.9 75.4,113.4 		"/>
		<polygon class="st81" points="161.4,163.3 153.5,167.8 161.4,172.3 169.2,167.8 		"/>
		<polygon class="st22" points="145.7,154.2 137.9,158.7 145.7,163.3 153.5,158.7 		"/>
		<polygon class="st80" points="114.5,136.1 106.6,140.6 114.5,145.1 122.3,140.6 		"/>
		<polygon class="st62" points="75.4,104.3 67.6,99.8 59.7,104.3 67.6,108.9 		"/>
		<polygon class="st82" points="153.5,158.7 145.7,163.3 153.5,167.8 161.4,163.3 		"/>
		<polygon class="st83" points="122.3,140.6 114.5,145.1 122.3,149.7 130.1,145.1 		"/>
		<polygon class="st46" points="130.1,145.1 122.3,149.7 130.1,154.2 137.9,149.7 		"/>
		<polygon class="st84" points="137.9,149.7 130.1,154.2 137.9,158.7 145.7,154.2 		"/>
		<polygon class="st85" points="137.9,68.1 130.1,63.5 122.3,68.1 130.1,72.6 		"/>
		<polygon class="st86" points="145.7,63.5 137.9,59 130.1,63.5 137.9,68.1 		"/>
		<polygon class="st87" points="153.5,59 145.7,54.5 137.9,59 145.7,63.5 		"/>
		<polygon class="st88" points="169.2,49.9 161.4,45.4 153.5,49.9 161.4,54.5 		"/>
		<polygon class="st89" points="161.4,54.5 153.5,49.9 145.7,54.5 153.5,59 		"/>
		<polygon class="st11" points="184.8,59 192.6,54.5 184.8,49.9 177,54.5 		"/>
		<polygon class="st90" points="83.2,99.8 75.4,95.3 67.6,99.8 75.4,104.3 		"/>
		<polygon class="st25" points="177,45.4 169.2,40.9 161.4,45.4 169.2,49.9 		"/>
		<polygon class="st91" points="177,54.5 184.8,49.9 177,45.4 169.2,49.9 		"/>
		<polygon class="st92" points="169.2,167.8 161.4,172.3 169.2,176.9 177,172.3 		"/>
		<polygon class="st93" points="98.8,90.7 91,86.2 83.2,90.7 91,95.3 		"/>
		<polygon class="st94" points="91,95.3 83.2,90.7 75.4,95.3 83.2,99.8 		"/>
		<polygon class="st47" points="106.6,86.2 98.8,81.7 91,86.2 98.8,90.7 		"/>
		<polygon class="st47" points="114.5,81.7 106.6,77.1 98.8,81.7 106.6,86.2 		"/>
		<polygon class="st95" points="130.1,72.6 122.3,68.1 114.5,72.6 122.3,77.1 		"/>
		<polygon class="st96" points="122.3,77.1 114.5,72.6 106.6,77.1 114.5,81.7 		"/>
		<polygon class="st97" points="83.2,117.9 75.4,122.5 83.2,127 91,122.5 		"/>
		<polygon class="st33" points="247.3,86.2 255.2,81.7 247.3,77.1 239.5,81.7 		"/>
		<polygon class="st42" points="231.7,77.1 239.5,72.6 231.7,68.1 223.9,72.6 		"/>
		<polygon class="st98" points="255.2,90.7 263,86.2 255.2,81.7 247.3,86.2 		"/>
		<polygon class="st99" points="239.5,81.7 247.3,77.1 239.5,72.6 231.7,77.1 		"/>
		<polygon class="st100" points="263,95.3 270.8,90.7 263,86.2 255.2,90.7 		"/>
		<polygon class="st76" points="278.6,104.3 286.4,99.8 278.6,95.3 270.8,99.8 		"/>
		<polygon class="st63" points="270.8,99.8 278.6,95.3 270.8,90.7 263,95.3 		"/>
		<polygon class="st101" points="200.4,59 208.3,54.5 200.4,49.9 192.6,54.5 		"/>
		<polygon class="st102" points="192.6,54.5 200.4,49.9 192.6,45.4 184.8,49.9 		"/>
		<polygon class="st103" points="184.8,49.9 192.6,45.4 184.8,40.9 177,45.4 		"/>
		<polygon class="st25" points="169.2,40.9 177,45.4 184.8,40.9 177,36.3 		"/>
		<polygon class="st55" points="208.3,63.5 216.1,59 208.3,54.5 200.4,59 		"/>
		<polygon class="st4" points="216.1,68.1 223.9,63.5 216.1,59 208.3,63.5 		"/>
		<polygon class="st104" points="286.4,108.9 294.2,104.3 286.4,99.8 278.6,104.3 		"/>
		<polygon class="st12" points="223.9,72.6 231.7,68.1 223.9,63.5 216.1,68.1 		"/>
		<polygon class="st105" points="231.7,140.6 239.5,145.1 247.3,140.6 239.5,136.1 		"/>
		<polygon class="st17" points="294.2,113.4 302.1,108.9 294.2,104.3 286.4,108.9 		"/>
		<polygon class="st4" points="208.3,154.2 216.1,158.7 223.9,154.2 216.1,149.7 		"/>
		<polygon class="st106" points="216.1,149.7 223.9,154.2 231.7,149.7 223.9,145.1 		"/>
		<polygon class="st107" points="184.8,167.8 192.6,172.3 200.4,167.8 192.6,163.3 		"/>
		<polygon class="st108" points="192.6,163.3 200.4,167.8 208.3,163.3 200.4,158.7 		"/>
		<polygon class="st109" points="177,172.3 184.8,176.9 192.6,172.3 184.8,167.8 		"/>
		<polygon class="st64" points="223.9,145.1 231.7,149.7 239.5,145.1 231.7,140.6 		"/>
		<polygon class="st24" points="200.4,158.7 208.3,163.3 216.1,158.7 208.3,154.2 		"/>
		<polygon class="st110" points="270.8,117.9 278.6,122.5 286.4,117.9 278.6,113.4 		"/>
		<polygon class="st17" points="278.6,113.4 286.4,117.9 294.2,113.4 286.4,108.9 		"/>
		<polygon class="st30" points="169.2,176.9 177,181.4 184.8,176.9 177,172.3 		"/>
		<polygon class="st111" points="263,122.5 270.8,127 278.6,122.5 270.8,117.9 		"/>
		<polygon class="st95" points="239.5,136.1 247.3,140.6 255.2,136.1 247.3,131.5 		"/>
		<polygon class="st78" points="255.2,127 263,131.5 270.8,127 263,122.5 		"/>
		<polygon class="st112" points="247.3,131.5 255.2,136.1 263,131.5 255.2,127 		"/>
		<polygon class="st80" points="122.3,131.5 114.5,136.1 122.3,140.6 130.1,136.1 		"/>
		<polygon class="st113" points="137.9,77.1 130.1,72.6 122.3,77.1 130.1,81.7 		"/>
		<polygon class="st16" points="177,54.5 169.2,49.9 161.4,54.5 169.2,59 		"/>
		<polygon class="st114" points="130.1,81.7 122.3,77.1 114.5,81.7 122.3,86.2 		"/>
		<polygon class="st78" points="169.2,59 161.4,54.5 153.5,59 161.4,63.5 		"/>
		<polygon class="st54" points="122.3,86.2 114.5,81.7 106.6,86.2 114.5,90.7 		"/>
		<polygon class="st86" points="153.5,68.1 145.7,63.5 137.9,68.1 145.7,72.6 		"/>
		<polygon class="st78" points="161.4,63.5 153.5,59 145.7,63.5 153.5,68.1 		"/>
		<polygon class="st86" points="145.7,72.6 137.9,68.1 130.1,72.6 137.9,77.1 		"/>
		<polygon class="st115" points="83.2,108.9 75.4,113.4 83.2,117.9 91,113.4 		"/>
		<polygon class="st116" points="98.8,117.9 91,122.5 98.8,127 106.6,122.5 		"/>
		<polygon class="st11" points="75.4,104.3 67.6,108.9 75.4,113.4 83.2,108.9 		"/>
		<polygon class="st47" points="114.5,90.7 106.6,86.2 98.8,90.7 106.6,95.3 		"/>
		<polygon class="st57" points="106.6,95.3 98.8,90.7 91,95.3 98.8,99.8 		"/>
		<polygon class="st15" points="98.8,99.8 91,95.3 83.2,99.8 91,104.3 		"/>
		<polygon class="st117" points="91,104.3 83.2,99.8 75.4,104.3 83.2,108.9 		"/>
		<polygon class="st118" points="239.5,117.9 247.3,122.5 255.2,117.9 247.3,113.4 		"/>
		<polygon class="st55" points="255.2,108.9 263,104.3 255.2,99.8 247.3,104.3 		"/>
		<polygon class="st119" points="239.5,99.8 247.3,95.3 239.5,90.7 231.7,95.3 		"/>
		<polygon class="st120" points="247.3,104.3 255.2,99.8 247.3,95.3 239.5,99.8 		"/>
		<polygon class="st6" points="177,63.5 184.8,59 177,54.5 169.2,59 		"/>
		<polygon class="st78" points="231.7,122.5 239.5,127 247.3,122.5 239.5,117.9 		"/>
		<polygon class="st60" points="106.6,122.5 98.8,127 106.6,131.5 114.5,127 		"/>
		<polygon class="st24" points="247.3,113.4 255.2,117.9 263,113.4 255.2,108.9 		"/>
		<polygon class="st121" points="263,113.4 270.8,108.9 263,104.3 255.2,108.9 		"/>
		<polygon class="st24" points="192.6,72.6 200.4,68.1 192.6,63.5 184.8,68.1 		"/>
		<polygon class="st122" points="184.8,68.1 192.6,63.5 184.8,59 177,63.5 		"/>
		<polygon class="st55" points="200.4,77.1 208.3,72.6 200.4,68.1 192.6,72.6 		"/>
		<polygon class="st123" points="223.9,90.7 231.7,86.2 223.9,81.7 216.1,86.2 		"/>
		<polygon class="st11" points="231.7,95.3 239.5,90.7 231.7,86.2 223.9,90.7 		"/>
		<polygon class="st28" points="216.1,86.2 223.9,81.7 216.1,77.1 208.3,81.7 		"/>
		<polygon class="st28" points="208.3,81.7 216.1,77.1 208.3,72.6 200.4,77.1 		"/>
		<polygon class="st12" points="231.7,86.2 239.5,81.7 231.7,77.1 223.9,81.7 		"/>
		<polygon class="st92" points="278.6,113.4 286.4,108.9 278.6,104.3 270.8,108.9 		"/>
		<polygon class="st111" points="263,113.4 270.8,117.9 278.6,113.4 270.8,108.9 		"/>
		<polygon class="st42" points="270.8,108.9 278.6,104.3 270.8,99.8 263,104.3 		"/>
		<polygon class="st108" points="231.7,131.5 239.5,136.1 247.3,131.5 239.5,127 		"/>
		<polygon class="st119" points="255.2,117.9 263,122.5 270.8,117.9 263,113.4 		"/>
		<polygon class="st17" points="239.5,127 247.3,131.5 255.2,127 247.3,122.5 		"/>
		<polygon class="st17" points="247.3,122.5 255.2,127 263,122.5 255.2,117.9 		"/>
		<polygon class="st124" points="263,104.3 270.8,99.8 263,95.3 255.2,99.8 		"/>
		<polygon class="st125" points="216.1,77.1 223.9,72.6 216.1,68.1 208.3,72.6 		"/>
		<polygon class="st80" points="114.5,127 106.6,131.5 114.5,136.1 122.3,131.5 		"/>
		<polygon class="st126" points="223.9,81.7 231.7,77.1 223.9,72.6 216.1,77.1 		"/>
		<polygon class="st70" points="208.3,72.6 216.1,68.1 208.3,63.5 200.4,68.1 		"/>
		<polygon class="st86" points="200.4,68.1 208.3,63.5 200.4,59 192.6,63.5 		"/>
		<polygon class="st119" points="247.3,95.3 255.2,90.7 247.3,86.2 239.5,90.7 		"/>
		<polygon class="st22" points="239.5,90.7 247.3,86.2 239.5,81.7 231.7,86.2 		"/>
		<polygon class="st7" points="255.2,99.8 263,95.3 255.2,90.7 247.3,95.3 		"/>
		<polygon class="st127" points="153.5,149.7 145.7,154.2 153.5,158.7 161.4,154.2 		"/>
		<polygon class="st128" points="169.2,158.7 161.4,163.3 169.2,167.8 177,163.3 		"/>
		<polygon class="st22" points="161.4,154.2 153.5,158.7 161.4,163.3 169.2,158.7 		"/>
		<polygon class="st25" points="145.7,145.1 137.9,149.7 145.7,154.2 153.5,149.7 		"/>
		<polygon class="st119" points="223.9,127 231.7,131.5 239.5,127 231.7,122.5 		"/>
		<polygon class="st25" points="137.9,140.6 130.1,145.1 137.9,149.7 145.7,145.1 		"/>
		<polygon class="st129" points="130.1,136.1 122.3,140.6 130.1,145.1 137.9,140.6 		"/>
		<polygon class="st105" points="216.1,140.6 223.9,145.1 231.7,140.6 223.9,136.1 		"/>
		<polygon class="st130" points="208.3,145.1 216.1,149.7 223.9,145.1 216.1,140.6 		"/>
		<polygon class="st64" points="223.9,136.1 231.7,140.6 239.5,136.1 231.7,131.5 		"/>
		<polygon class="st37" points="169.2,167.8 177,172.3 184.8,167.8 177,163.3 		"/>
		<polygon class="st77" points="200.4,149.7 208.3,154.2 216.1,149.7 208.3,145.1 		"/>
		<polygon class="st19" points="177,163.3 184.8,167.8 192.6,163.3 184.8,158.7 		"/>
		<polygon class="st131" points="192.6,154.2 200.4,158.7 208.3,154.2 200.4,149.7 		"/>
		<polygon class="st109" points="184.8,158.7 192.6,163.3 200.4,158.7 192.6,154.2 		"/>
	</g>
	<g class="st132">
		<polygon class="st133" points="192.6,281.2 200.4,285.7 208.3,281.2 200.4,276.6 		"/>
		<polygon class="st133" points="200.4,276.6 208.3,281.2 216.1,276.6 208.3,272.1 		"/>
		<polygon class="st133" points="169.2,285.7 161.4,290.2 169.2,294.8 177,290.2 		"/>
		<polygon class="st133" points="208.3,272.1 216.1,276.6 223.9,272.1 216.1,267.6 		"/>
		<polygon class="st133" points="208.3,235.8 216.1,231.3 208.3,226.8 200.4,231.3 		"/>
		<polygon class="st133" points="177,290.2 184.8,294.8 192.6,290.2 184.8,285.7 		"/>
		<polygon class="st133" points="184.8,285.7 192.6,290.2 200.4,285.7 192.6,281.2 		"/>
		<polygon class="st133" points="216.1,267.6 223.9,272.1 231.7,267.6 223.9,263 		"/>
		<polygon class="st133" points="223.9,244.9 231.7,240.4 223.9,235.8 216.1,240.4 		"/>
		<polygon class="st133" points="216.1,276.6 223.9,281.2 231.7,276.6 223.9,272.1 		"/>
		<polygon class="st133" points="216.1,240.4 223.9,235.8 216.1,231.3 208.3,235.8 		"/>
		<polygon class="st133" points="223.9,263 231.7,267.6 239.5,263 231.7,258.5 		"/>
		<polygon class="st133" points="231.7,258.5 239.5,263 247.3,258.5 239.5,254 		"/>
		<polygon class="st133" points="239.5,254 247.3,249.4 239.5,244.9 231.7,249.4 		"/>
		<polygon class="st133" points="247.3,258.5 255.2,254 247.3,249.4 239.5,254 		"/>
		<polygon class="st133" points="169.2,294.8 177,299.3 184.8,294.8 177,290.2 		"/>
		<polygon class="st133" points="161.4,281.2 153.5,285.7 161.4,290.2 169.2,285.7 		"/>
		<polygon class="st133" points="137.9,240.4 130.1,235.8 122.3,240.4 130.1,244.9 		"/>
		<polygon class="st133" points="130.1,244.9 122.3,240.4 114.5,244.9 122.3,249.4 		"/>
		<polygon class="st133" points="161.4,226.8 153.5,222.2 145.7,226.8 153.5,231.3 		"/>
		<polygon class="st133" points="169.2,222.2 161.4,217.7 153.5,222.2 161.4,226.8 		"/>
		<polygon class="st133" points="122.3,249.4 114.5,244.9 106.6,249.4 114.5,254 		"/>
		<polygon class="st133" points="177,217.7 169.2,213.2 161.4,217.7 169.2,222.2 		"/>
		<polygon class="st133" points="145.7,235.8 137.9,231.3 130.1,235.8 137.9,240.4 		"/>
		<polygon class="st133" points="106.6,249.4 98.8,254 106.6,258.5 114.5,254 		"/>
		<polygon class="st133" points="145.7,272.1 137.9,276.6 145.7,281.2 153.5,276.6 		"/>
		<polygon class="st133" points="153.5,276.6 145.7,281.2 153.5,285.7 161.4,281.2 		"/>
		<polygon class="st133" points="137.9,267.6 130.1,272.1 137.9,276.6 145.7,272.1 		"/>
		<polygon class="st133" points="114.5,254 106.6,258.5 114.5,263 122.3,258.5 		"/>
		<polygon class="st133" points="122.3,258.5 114.5,263 122.3,267.6 130.1,263 		"/>
		<polygon class="st133" points="130.1,263 122.3,267.6 130.1,272.1 137.9,267.6 		"/>
		<polygon class="st133" points="153.5,231.3 145.7,226.8 137.9,231.3 145.7,235.8 		"/>
		<polygon class="st133" points="161.4,290.2 153.5,294.8 161.4,299.3 169.2,294.8 		"/>
		<polygon class="st133" points="145.7,281.2 137.9,285.7 145.7,290.2 153.5,285.7 		"/>
		<polygon class="st133" points="106.6,258.5 98.8,263 106.6,267.6 114.5,263 		"/>
		<polygon class="st133" points="137.9,276.6 130.1,281.2 137.9,285.7 145.7,281.2 		"/>
		<polygon class="st133" points="130.1,272.1 122.3,276.6 130.1,281.2 137.9,276.6 		"/>
		<polygon class="st133" points="114.5,263 106.6,267.6 114.5,272.1 122.3,267.6 		"/>
		<polygon class="st133" points="122.3,267.6 114.5,272.1 122.3,276.6 130.1,272.1 		"/>
		<polygon class="st133" points="153.5,285.7 145.7,290.2 153.5,294.8 161.4,290.2 		"/>
		<polygon class="st133" points="192.6,290.2 200.4,294.8 208.3,290.2 200.4,285.7 		"/>
		<polygon class="st133" points="200.4,285.7 208.3,290.2 216.1,285.7 208.3,281.2 		"/>
		<polygon class="st133" points="169.2,294.8 161.4,299.3 169.2,303.8 177,299.3 		"/>
		<polygon class="st133" points="208.3,281.2 216.1,285.7 223.9,281.2 216.1,276.6 		"/>
		<polygon class="st133" points="169.2,303.8 177,308.4 184.8,303.8 177,299.3 		"/>
		<polygon class="st133" points="177,299.3 184.8,303.8 192.6,299.3 184.8,294.8 		"/>
		<polygon class="st133" points="184.8,294.8 192.6,299.3 200.4,294.8 192.6,290.2 		"/>
		<polygon class="st133" points="91,249.4 83.2,254 91,258.5 98.8,254 		"/>
		<polygon class="st133" points="169.2,213.2 161.4,208.6 153.5,213.2 161.4,217.7 		"/>
		<polygon class="st133" points="161.4,217.7 153.5,213.2 145.7,217.7 153.5,222.2 		"/>
		<polygon class="st133" points="177,208.6 169.2,204.1 161.4,208.6 169.2,213.2 		"/>
		<polygon class="st133" points="153.5,222.2 145.7,217.7 137.9,222.2 145.7,226.8 		"/>
		<polygon class="st133" points="192.6,226.8 200.4,222.2 192.6,217.7 184.8,222.2 		"/>
		<polygon class="st133" points="177,217.7 184.8,213.2 177,208.6 169.2,213.2 		"/>
		<polygon class="st133" points="184.8,222.2 192.6,217.7 184.8,213.2 177,217.7 		"/>
		<polygon class="st133" points="98.8,254 91,258.5 98.8,263 106.6,258.5 		"/>
		<polygon class="st133" points="106.6,249.4 98.8,244.9 91,249.4 98.8,254 		"/>
		<polygon class="st133" points="114.5,244.9 106.6,240.4 98.8,244.9 106.6,249.4 		"/>
		<polygon class="st133" points="200.4,231.3 208.3,226.8 200.4,222.2 192.6,226.8 		"/>
		<polygon class="st133" points="130.1,235.8 122.3,231.3 114.5,235.8 122.3,240.4 		"/>
		<polygon class="st133" points="137.9,231.3 130.1,226.8 122.3,231.3 130.1,235.8 		"/>
		<polygon class="st133" points="145.7,226.8 137.9,222.2 130.1,226.8 137.9,231.3 		"/>
		<polygon class="st133" points="122.3,240.4 114.5,235.8 106.6,240.4 114.5,244.9 		"/>
		<polygon class="st133" points="231.7,249.4 239.5,244.9 231.7,240.4 223.9,244.9 		"/>
		<polygon class="st133" points="153.5,249.4 145.7,244.9 137.9,249.4 145.7,254 		"/>
		<polygon class="st133" points="177,244.9 184.8,240.4 177,235.8 169.2,240.4 		"/>
		<polygon class="st133" points="161.4,263 153.5,267.6 161.4,272.1 169.2,267.6 		"/>
		<polygon class="st133" points="153.5,258.5 145.7,263 153.5,267.6 161.4,263 		"/>
		<polygon class="st133" points="137.9,249.4 130.1,254 137.9,258.5 145.7,254 		"/>
		<polygon class="st133" points="208.3,254 216.1,249.4 208.3,244.9 200.4,249.4 		"/>
		<polygon class="st133" points="177,235.8 169.2,231.3 161.4,235.8 169.2,240.4 		"/>
		<polygon class="st133" points="169.2,240.4 161.4,235.8 153.5,240.4 161.4,244.9 		"/>
		<polygon class="st133" points="145.7,254 137.9,258.5 145.7,263 153.5,258.5 		"/>
		<polygon class="st133" points="200.4,258.5 208.3,263 216.1,258.5 208.3,254 		"/>
		<polygon class="st133" points="192.6,263 200.4,267.6 208.3,263 200.4,258.5 		"/>
		<polygon class="st133" points="216.1,258.5 223.9,254 216.1,249.4 208.3,254 		"/>
		<polygon class="st133" points="184.8,267.6 192.6,272.1 200.4,267.6 192.6,263 		"/>
		<polygon class="st133" points="169.2,276.6 177,281.2 184.8,276.6 177,272.1 		"/>
		<polygon class="st133" points="169.2,267.6 161.4,272.1 169.2,276.6 177,272.1 		"/>
		<polygon class="st133" points="177,272.1 184.8,276.6 192.6,272.1 184.8,267.6 		"/>
		<polygon class="st133" points="161.4,244.9 153.5,240.4 145.7,244.9 153.5,249.4 		"/>
		<polygon class="st133" points="184.8,249.4 192.6,244.9 184.8,240.4 177,244.9 		"/>
		<polygon class="st133" points="169.2,249.4 161.4,244.9 153.5,249.4 161.4,254 		"/>
		<polygon class="st133" points="177,254 184.8,249.4 177,244.9 169.2,249.4 		"/>
		<polygon class="st133" points="169.2,249.4 161.4,254 169.2,258.5 177,254 		"/>
		<polygon class="st133" points="184.8,258.5 192.6,254 184.8,249.4 177,254 		"/>
		<polygon class="st133" points="153.5,249.4 145.7,254 153.5,258.5 161.4,254 		"/>
		<polygon class="st133" points="169.2,258.5 177,263 184.8,258.5 177,254 		"/>
		<polygon class="st133" points="177,244.9 169.2,240.4 161.4,244.9 169.2,249.4 		"/>
		<polygon class="st133" points="200.4,258.5 208.3,254 200.4,249.4 192.6,254 		"/>
		<polygon class="st133" points="184.8,258.5 192.6,263 200.4,258.5 192.6,254 		"/>
		<polygon class="st133" points="192.6,254 200.4,249.4 192.6,244.9 184.8,249.4 		"/>
		<polygon class="st133" points="177,263 184.8,267.6 192.6,263 184.8,258.5 		"/>
		<polygon class="st133" points="161.4,254 153.5,258.5 161.4,263 169.2,258.5 		"/>
		<polygon class="st133" points="169.2,258.5 161.4,263 169.2,267.6 177,263 		"/>
		<polygon class="st133" points="169.2,267.6 177,272.1 184.8,267.6 177,263 		"/>
		<polygon class="st133" points="177,226.8 169.2,222.2 161.4,226.8 169.2,231.3 		"/>
		<polygon class="st133" points="192.6,272.1 200.4,276.6 208.3,272.1 200.4,267.6 		"/>
		<polygon class="st133" points="200.4,267.6 208.3,272.1 216.1,267.6 208.3,263 		"/>
		<polygon class="st133" points="208.3,263 216.1,267.6 223.9,263 216.1,258.5 		"/>
		<polygon class="st133" points="216.1,258.5 223.9,263 231.7,258.5 223.9,254 		"/>
		<polygon class="st133" points="169.2,285.7 177,290.2 184.8,285.7 177,281.2 		"/>
		<polygon class="st133" points="177,281.2 184.8,285.7 192.6,281.2 184.8,276.6 		"/>
		<polygon class="st133" points="184.8,276.6 192.6,281.2 200.4,276.6 192.6,272.1 		"/>
		<polygon class="st133" points="192.6,235.8 200.4,231.3 192.6,226.8 184.8,231.3 		"/>
		<polygon class="st133" points="169.2,276.6 161.4,281.2 169.2,285.7 177,281.2 		"/>
		<polygon class="st133" points="200.4,240.4 208.3,235.8 200.4,231.3 192.6,235.8 		"/>
		<polygon class="st133" points="231.7,258.5 239.5,254 231.7,249.4 223.9,254 		"/>
		<polygon class="st133" points="184.8,231.3 192.6,226.8 184.8,222.2 177,226.8 		"/>
		<polygon class="st133" points="208.3,244.9 216.1,240.4 208.3,235.8 200.4,240.4 		"/>
		<polygon class="st133" points="223.9,254 231.7,249.4 223.9,244.9 216.1,249.4 		"/>
		<polygon class="st133" points="216.1,249.4 223.9,244.9 216.1,240.4 208.3,244.9 		"/>
		<polygon class="st133" points="169.2,231.3 161.4,226.8 153.5,231.3 161.4,235.8 		"/>
		<polygon class="st133" points="200.4,249.4 208.3,244.9 200.4,240.4 192.6,244.9 		"/>
		<polygon class="st133" points="177,226.8 184.8,222.2 177,217.7 169.2,222.2 		"/>
		<polygon class="st133" points="153.5,240.4 145.7,235.8 137.9,240.4 145.7,244.9 		"/>
		<polygon class="st133" points="161.4,235.8 153.5,231.3 145.7,235.8 153.5,240.4 		"/>
		<polygon class="st133" points="192.6,244.9 200.4,240.4 192.6,235.8 184.8,240.4 		"/>
		<polygon class="st133" points="177,235.8 184.8,231.3 177,226.8 169.2,231.3 		"/>
		<polygon class="st133" points="184.8,240.4 192.6,235.8 184.8,231.3 177,235.8 		"/>
		<polygon class="st133" points="137.9,258.5 130.1,263 137.9,267.6 145.7,263 		"/>
		<polygon class="st133" points="161.4,272.1 153.5,276.6 161.4,281.2 169.2,276.6 		"/>
		<polygon class="st133" points="145.7,263 137.9,267.6 145.7,272.1 153.5,267.6 		"/>
		<polygon class="st133" points="145.7,244.9 137.9,240.4 130.1,244.9 137.9,249.4 		"/>
		<polygon class="st133" points="153.5,267.6 145.7,272.1 153.5,276.6 161.4,272.1 		"/>
		<polygon class="st133" points="137.9,249.4 130.1,244.9 122.3,249.4 130.1,254 		"/>
		<polygon class="st133" points="130.1,254 122.3,258.5 130.1,263 137.9,258.5 		"/>
		<polygon class="st133" points="122.3,249.4 114.5,254 122.3,258.5 130.1,254 		"/>
		<polygon class="st133" points="91,258.5 83.2,263 91,267.6 98.8,263 		"/>
		<polygon class="st133" points="91,267.6 83.2,272.1 91,276.6 98.8,272.1 		"/>
		<polygon class="st133" points="98.8,272.1 91,276.6 98.8,281.2 106.6,276.6 		"/>
		<polygon class="st133" points="192.6,208.6 200.4,204.1 192.6,199.6 184.8,204.1 		"/>
		<polygon class="st133" points="75.4,258.5 67.6,263 75.4,267.6 83.2,263 		"/>
		<polygon class="st133" points="59.7,249.4 51.9,254 59.7,258.5 67.6,254 		"/>
		<polygon class="st133" points="106.6,276.6 98.8,281.2 106.6,285.7 114.5,281.2 		"/>
		<polygon class="st133" points="67.6,254 59.7,258.5 67.6,263 75.4,258.5 		"/>
		<polygon class="st133" points="161.4,308.4 153.5,312.9 161.4,317.4 169.2,312.9 		"/>
		<polygon class="st133" points="145.7,299.3 137.9,303.8 145.7,308.4 153.5,303.8 		"/>
		<polygon class="st133" points="114.5,281.2 106.6,285.7 114.5,290.2 122.3,285.7 		"/>
		<polygon class="st133" points="75.4,249.4 67.6,244.9 59.7,249.4 67.6,254 		"/>
		<polygon class="st133" points="153.5,303.8 145.7,308.4 153.5,312.9 161.4,308.4 		"/>
		<polygon class="st133" points="122.3,285.7 114.5,290.2 122.3,294.8 130.1,290.2 		"/>
		<polygon class="st133" points="130.1,290.2 122.3,294.8 130.1,299.3 137.9,294.8 		"/>
		<polygon class="st133" points="137.9,294.8 130.1,299.3 137.9,303.8 145.7,299.3 		"/>
		<polygon class="st133" points="137.9,213.2 130.1,208.6 122.3,213.2 130.1,217.7 		"/>
		<polygon class="st133" points="145.7,208.6 137.9,204.1 130.1,208.6 137.9,213.2 		"/>
		<polygon class="st133" points="153.5,204.1 145.7,199.6 137.9,204.1 145.7,208.6 		"/>
		<polygon class="st133" points="169.2,195 161.4,190.5 153.5,195 161.4,199.6 		"/>
		<polygon class="st133" points="161.4,199.6 153.5,195 145.7,199.6 153.5,204.1 		"/>
		<polygon class="st133" points="184.8,204.1 192.6,199.6 184.8,195 177,199.6 		"/>
		<polygon class="st133" points="83.2,244.9 75.4,240.4 67.6,244.9 75.4,249.4 		"/>
		<polygon class="st133" points="177,190.5 169.2,186 161.4,190.5 169.2,195 		"/>
		<polygon class="st133" points="177,199.6 184.8,195 177,190.5 169.2,195 		"/>
		<polygon class="st133" points="169.2,312.9 161.4,317.4 169.2,322 177,317.4 		"/>
		<polygon class="st133" points="98.8,235.8 91,231.3 83.2,235.8 91,240.4 		"/>
		<polygon class="st133" points="91,240.4 83.2,235.8 75.4,240.4 83.2,244.9 		"/>
		<polygon class="st133" points="106.6,231.3 98.8,226.8 91,231.3 98.8,235.8 		"/>
		<polygon class="st133" points="114.5,226.8 106.6,222.2 98.8,226.8 106.6,231.3 		"/>
		<polygon class="st133" points="130.1,217.7 122.3,213.2 114.5,217.7 122.3,222.2 		"/>
		<polygon class="st133" points="122.3,222.2 114.5,217.7 106.6,222.2 114.5,226.8 		"/>
		<polygon class="st133" points="83.2,263 75.4,267.6 83.2,272.1 91,267.6 		"/>
		<polygon class="st133" points="247.3,231.3 255.2,226.8 247.3,222.2 239.5,226.8 		"/>
		<polygon class="st133" points="231.7,222.2 239.5,217.7 231.7,213.2 223.9,217.7 		"/>
		<polygon class="st133" points="255.2,235.8 263,231.3 255.2,226.8 247.3,231.3 		"/>
		<polygon class="st133" points="239.5,226.8 247.3,222.2 239.5,217.7 231.7,222.2 		"/>
		<polygon class="st133" points="263,240.4 270.8,235.8 263,231.3 255.2,235.8 		"/>
		<polygon class="st133" points="278.6,249.4 286.4,244.9 278.6,240.4 270.8,244.9 		"/>
		<polygon class="st133" points="270.8,244.9 278.6,240.4 270.8,235.8 263,240.4 		"/>
		<polygon class="st133" points="200.4,204.1 208.3,199.6 200.4,195 192.6,199.6 		"/>
		<polygon class="st133" points="192.6,199.6 200.4,195 192.6,190.5 184.8,195 		"/>
		<polygon class="st133" points="184.8,195 192.6,190.5 184.8,186 177,190.5 		"/>
		<polygon class="st133" points="169.2,186 177,190.5 184.8,186 177,181.4 		"/>
		<polygon class="st133" points="208.3,208.6 216.1,204.1 208.3,199.6 200.4,204.1 		"/>
		<polygon class="st133" points="216.1,213.2 223.9,208.6 216.1,204.1 208.3,208.6 		"/>
		<polygon class="st133" points="286.4,254 294.2,249.4 286.4,244.9 278.6,249.4 		"/>
		<polygon class="st133" points="223.9,217.7 231.7,213.2 223.9,208.6 216.1,213.2 		"/>
		<polygon class="st133" points="231.7,285.7 239.5,290.2 247.3,285.7 239.5,281.2 		"/>
		<polygon class="st133" points="294.2,258.5 302.1,254 294.2,249.4 286.4,254 		"/>
		<polygon class="st133" points="208.3,299.3 216.1,303.8 223.9,299.3 216.1,294.8 		"/>
		<polygon class="st133" points="216.1,294.8 223.9,299.3 231.7,294.8 223.9,290.2 		"/>
		<polygon class="st133" points="184.8,312.9 192.6,317.4 200.4,312.9 192.6,308.4 		"/>
		<polygon class="st133" points="192.6,308.4 200.4,312.9 208.3,308.4 200.4,303.8 		"/>
		<polygon class="st133" points="177,317.4 184.8,322 192.6,317.4 184.8,312.9 		"/>
		<polygon class="st133" points="223.9,290.2 231.7,294.8 239.5,290.2 231.7,285.7 		"/>
		<polygon class="st133" points="200.4,303.8 208.3,308.4 216.1,303.8 208.3,299.3 		"/>
		<polygon class="st133" points="270.8,263 278.6,267.6 286.4,263 278.6,258.5 		"/>
		<polygon class="st133" points="278.6,258.5 286.4,263 294.2,258.5 286.4,254 		"/>
		<polygon class="st133" points="169.2,322 177,326.5 184.8,322 177,317.4 		"/>
		<polygon class="st133" points="263,267.6 270.8,272.1 278.6,267.6 270.8,263 		"/>
		<polygon class="st133" points="239.5,281.2 247.3,285.7 255.2,281.2 247.3,276.6 		"/>
		<polygon class="st133" points="255.2,272.1 263,276.6 270.8,272.1 263,267.6 		"/>
		<polygon class="st133" points="247.3,276.6 255.2,281.2 263,276.6 255.2,272.1 		"/>
		<polygon class="st133" points="122.3,276.6 114.5,281.2 122.3,285.7 130.1,281.2 		"/>
		<polygon class="st133" points="137.9,222.2 130.1,217.7 122.3,222.2 130.1,226.8 		"/>
		<polygon class="st133" points="177,199.6 169.2,195 161.4,199.6 169.2,204.1 		"/>
		<polygon class="st133" points="130.1,226.8 122.3,222.2 114.5,226.8 122.3,231.3 		"/>
		<polygon class="st133" points="169.2,204.1 161.4,199.6 153.5,204.1 161.4,208.6 		"/>
		<polygon class="st133" points="122.3,231.3 114.5,226.8 106.6,231.3 114.5,235.8 		"/>
		<polygon class="st133" points="153.5,213.2 145.7,208.6 137.9,213.2 145.7,217.7 		"/>
		<polygon class="st133" points="161.4,208.6 153.5,204.1 145.7,208.6 153.5,213.2 		"/>
		<polygon class="st133" points="145.7,217.7 137.9,213.2 130.1,217.7 137.9,222.2 		"/>
		<polygon class="st133" points="83.2,254 75.4,258.5 83.2,263 91,258.5 		"/>
		<polygon class="st133" points="98.8,263 91,267.6 98.8,272.1 106.6,267.6 		"/>
		<polygon class="st133" points="75.4,249.4 67.6,254 75.4,258.5 83.2,254 		"/>
		<polygon class="st133" points="114.5,235.8 106.6,231.3 98.8,235.8 106.6,240.4 		"/>
		<polygon class="st133" points="106.6,240.4 98.8,235.8 91,240.4 98.8,244.9 		"/>
		<polygon class="st133" points="98.8,244.9 91,240.4 83.2,244.9 91,249.4 		"/>
		<polygon class="st133" points="91,249.4 83.2,244.9 75.4,249.4 83.2,254 		"/>
		<polygon class="st133" points="239.5,263 247.3,267.6 255.2,263 247.3,258.5 		"/>
		<polygon class="st133" points="255.2,254 263,249.4 255.2,244.9 247.3,249.4 		"/>
		<polygon class="st133" points="239.5,244.9 247.3,240.4 239.5,235.8 231.7,240.4 		"/>
		<polygon class="st133" points="247.3,249.4 255.2,244.9 247.3,240.4 239.5,244.9 		"/>
		<polygon class="st133" points="177,208.6 184.8,204.1 177,199.6 169.2,204.1 		"/>
		<polygon class="st133" points="231.7,267.6 239.5,272.1 247.3,267.6 239.5,263 		"/>
		<polygon class="st133" points="106.6,267.6 98.8,272.1 106.6,276.6 114.5,272.1 		"/>
		<polygon class="st133" points="247.3,258.5 255.2,263 263,258.5 255.2,254 		"/>
		<polygon class="st133" points="263,258.5 270.8,254 263,249.4 255.2,254 		"/>
		<polygon class="st133" points="192.6,217.7 200.4,213.2 192.6,208.6 184.8,213.2 		"/>
		<polygon class="st133" points="184.8,213.2 192.6,208.6 184.8,204.1 177,208.6 		"/>
		<polygon class="st133" points="200.4,222.2 208.3,217.7 200.4,213.2 192.6,217.7 		"/>
		<polygon class="st133" points="223.9,235.8 231.7,231.3 223.9,226.8 216.1,231.3 		"/>
		<polygon class="st133" points="231.7,240.4 239.5,235.8 231.7,231.3 223.9,235.8 		"/>
		<polygon class="st133" points="216.1,231.3 223.9,226.8 216.1,222.2 208.3,226.8 		"/>
		<polygon class="st133" points="208.3,226.8 216.1,222.2 208.3,217.7 200.4,222.2 		"/>
		<polygon class="st133" points="231.7,231.3 239.5,226.8 231.7,222.2 223.9,226.8 		"/>
		<polygon class="st133" points="278.6,258.5 286.4,254 278.6,249.4 270.8,254 		"/>
		<polygon class="st133" points="263,258.5 270.8,263 278.6,258.5 270.8,254 		"/>
		<polygon class="st133" points="270.8,254 278.6,249.4 270.8,244.9 263,249.4 		"/>
		<polygon class="st133" points="231.7,276.6 239.5,281.2 247.3,276.6 239.5,272.1 		"/>
		<polygon class="st133" points="255.2,263 263,267.6 270.8,263 263,258.5 		"/>
		<polygon class="st133" points="239.5,272.1 247.3,276.6 255.2,272.1 247.3,267.6 		"/>
		<polygon class="st133" points="247.3,267.6 255.2,272.1 263,267.6 255.2,263 		"/>
		<polygon class="st133" points="263,249.4 270.8,244.9 263,240.4 255.2,244.9 		"/>
		<polygon class="st133" points="216.1,222.2 223.9,217.7 216.1,213.2 208.3,217.7 		"/>
		<polygon class="st133" points="114.5,272.1 106.6,276.6 114.5,281.2 122.3,276.6 		"/>
		<polygon class="st133" points="223.9,226.8 231.7,222.2 223.9,217.7 216.1,222.2 		"/>
		<polygon class="st133" points="208.3,217.7 216.1,213.2 208.3,208.6 200.4,213.2 		"/>
		<polygon class="st133" points="200.4,213.2 208.3,208.6 200.4,204.1 192.6,208.6 		"/>
		<polygon class="st133" points="247.3,240.4 255.2,235.8 247.3,231.3 239.5,235.8 		"/>
		<polygon class="st133" points="239.5,235.8 247.3,231.3 239.5,226.8 231.7,231.3 		"/>
		<polygon class="st133" points="255.2,244.9 263,240.4 255.2,235.8 247.3,240.4 		"/>
		<polygon class="st133" points="153.5,294.8 145.7,299.3 153.5,303.8 161.4,299.3 		"/>
		<polygon class="st133" points="169.2,303.8 161.4,308.4 169.2,312.9 177,308.4 		"/>
		<polygon class="st133" points="161.4,299.3 153.5,303.8 161.4,308.4 169.2,303.8 		"/>
		<polygon class="st133" points="145.7,290.2 137.9,294.8 145.7,299.3 153.5,294.8 		"/>
		<polygon class="st133" points="223.9,272.1 231.7,276.6 239.5,272.1 231.7,267.6 		"/>
		<polygon class="st133" points="137.9,285.7 130.1,290.2 137.9,294.8 145.7,290.2 		"/>
		<polygon class="st133" points="130.1,281.2 122.3,285.7 130.1,290.2 137.9,285.7 		"/>
		<polygon class="st133" points="216.1,285.7 223.9,290.2 231.7,285.7 223.9,281.2 		"/>
		<polygon class="st133" points="208.3,290.2 216.1,294.8 223.9,290.2 216.1,285.7 		"/>
		<polygon class="st133" points="223.9,281.2 231.7,285.7 239.5,281.2 231.7,276.6 		"/>
		<polygon class="st133" points="169.2,312.9 177,317.4 184.8,312.9 177,308.4 		"/>
		<polygon class="st133" points="200.4,294.8 208.3,299.3 216.1,294.8 208.3,290.2 		"/>
		<polygon class="st133" points="177,308.4 184.8,312.9 192.6,308.4 184.8,303.8 		"/>
		<polygon class="st133" points="192.6,299.3 200.4,303.8 208.3,299.3 200.4,294.8 		"/>
		<polygon class="st133" points="184.8,303.8 192.6,308.4 200.4,303.8 192.6,299.3 		"/>
	</g>
	<g>
		<polygon class="st134" points="98.8,244.7 98.8,253.7 106.7,258.2 106.7,249.2 		"/>
		<polygon class="st135" points="145.7,271.8 153.6,276.4 153.6,267.3 145.7,262.8 		"/>
		<polygon class="st136" points="145.7,199.5 145.7,190.4 137.9,185.9 137.9,194.9 		"/>
		<polygon class="st137" points="114.5,181.3 114.5,172.3 106.7,167.7 106.7,176.8 		"/>
		<polygon class="st137" points="106.7,176.8 106.7,167.7 98.8,163.2 98.8,172.3 		"/>
		<polygon class="st138" points="91,167.7 91,158.7 83.2,154.1 83.2,163.2 		"/>
		<polygon class="st137" points="98.8,172.3 98.8,163.2 91,158.7 91,167.7 		"/>
		<polygon class="st139" points="137.9,194.9 137.9,185.9 130.1,181.3 130.1,190.4 		"/>
		<polygon class="st140" points="122.3,185.9 122.3,176.8 114.5,172.3 114.5,181.3 		"/>
		<polygon class="st136" points="130.1,190.4 130.1,181.3 122.3,176.8 122.3,185.9 		"/>
		<polygon class="st141" points="83.2,199.4 75.4,194.9 75.4,203.9 83.2,208.4 		"/>
		<polygon class="st142" points="83.2,163.2 75.4,158.7 75.4,167.7 83.2,172.2 		"/>
		<polygon class="st143" points="75.4,203.9 67.6,199.4 67.6,208.4 75.4,213 		"/>
		<polygon class="st144" points="75.4,167.7 75.4,158.7 67.6,154.1 67.6,163.2 67.6,172.2 75.4,176.8 83.2,181.3 83.2,172.2 		"/>
		<polygon class="st145" points="106.7,258.2 98.8,253.7 98.8,262.8 106.7,267.3 114.5,271.8 114.5,262.8 		"/>
		<polygon class="st145" points="75.4,231.1 67.6,226.5 67.6,235.6 75.4,240.1 		"/>
		<polygon class="st137" points="114.5,172.3 114.5,163.2 106.7,158.7 106.7,167.7 		"/>
		<polygon class="st146" points="145.7,190.4 145.7,181.4 137.9,176.8 137.9,185.9 		"/>
		<polygon class="st147" points="130.1,181.3 130.1,172.3 122.3,167.8 122.3,176.8 		"/>
		<polygon class="st136" points="153.6,194.9 153.6,185.9 145.7,181.4 145.7,190.4 		"/>
		<polygon class="st148" points="137.9,185.9 137.9,176.8 130.1,172.3 130.1,181.3 		"/>
		<polygon class="st137" points="98.8,163.2 98.8,154.2 91,149.6 91,158.7 		"/>
		<polygon class="st149" points="91,158.7 91,149.6 83.2,145.1 83.2,154.1 		"/>
		<polygon class="st150" points="122.3,176.8 122.3,167.8 114.5,163.2 114.5,172.3 		"/>
		<polygon class="st151" points="75.4,140.6 67.6,136 67.6,145.1 75.4,149.6 		"/>
		<polygon class="st152" points="83.2,154.1 83.2,145.1 75.4,140.6 75.4,149.6 		"/>
		<polygon class="st153" points="106.7,167.7 106.7,158.7 98.8,154.2 98.8,163.2 		"/>
		<polygon class="st154" points="75.4,149.6 67.6,145.1 67.6,154.1 75.4,158.7 83.2,163.2 83.2,154.1 		"/>
		<polygon class="st155" points="137.9,204 145.7,208.5 145.7,199.5 137.9,194.9 		"/>
		<polygon class="st156" points="98.8,208.5 91,203.9 91,213 98.8,217.5 		"/>
		<polygon class="st156" points="98.8,199.4 91,194.9 91,203.9 98.8,208.5 		"/>
		<polygon class="st156" points="98.8,181.3 91,176.8 91,185.8 98.8,190.4 		"/>
		<polygon class="st157" points="122.3,204 122.3,194.9 114.5,190.4 114.5,199.4 		"/>
		<polygon class="st136" points="106.7,194.9 106.7,185.8 98.8,181.3 98.8,190.4 		"/>
		<polygon class="st135" points="114.5,235.6 114.5,244.7 122.3,249.2 122.3,240.1 		"/>
		<polygon class="st158" points="91,222 91,231.1 98.8,235.6 98.8,226.6 		"/>
		<polygon class="st134" points="98.8,226.6 98.8,235.6 106.7,240.1 106.7,231.1 		"/>
		<polygon class="st159" points="98.8,217.5 91,213 91,222 98.8,226.6 		"/>
		<polygon class="st134" points="130.1,244.7 122.3,240.1 122.3,249.2 130.1,253.7 137.9,258.3 137.9,249.2 		"/>
		<polygon class="st156" points="114.5,217.5 122.3,222.1 122.3,213 114.5,208.5 		"/>
		<polygon class="st160" points="114.5,199.4 106.7,194.9 106.7,203.9 114.5,208.5 122.3,213 122.3,204 		"/>
		<polygon class="st159" points="106.7,213 106.7,222 114.5,226.6 114.5,217.5 		"/>
		<polygon class="st161" points="106.7,203.9 106.7,194.9 98.8,190.4 91,185.8 91,194.9 98.8,199.4 98.8,208.5 98.8,217.5 
			106.7,222 106.7,213 114.5,217.5 114.5,208.5 		"/>
		<polygon class="st159" points="98.8,217.5 98.8,226.6 106.7,231.1 106.7,222 		"/>
		<polygon class="st159" points="122.3,222.1 130.1,226.6 130.1,217.5 122.3,213 		"/>
		<polygon class="st155" points="114.5,244.7 114.5,253.7 122.3,258.2 122.3,249.2 		"/>
		<polygon class="st145" points="106.7,231.1 106.7,240.1 106.7,249.2 114.5,253.7 114.5,244.7 114.5,235.6 		"/>
		<polygon class="st162" points="130.1,253.7 122.3,249.2 122.3,258.2 130.1,262.8 137.9,267.3 137.9,258.3 		"/>
		<polygon class="st158" points="98.8,235.6 98.8,244.7 106.7,249.2 106.7,240.1 		"/>
		<polygon class="st145" points="91,240.1 91,231.1 83.2,226.5 75.4,222 75.4,231.1 83.2,235.6 83.2,244.6 91,249.2 98.8,253.7 
			98.8,244.7 		"/>
		<polygon class="st134" points="91,231.1 91,240.1 98.8,244.7 98.8,235.6 		"/>
		<polygon class="st136" points="137.9,213 145.7,217.5 145.7,208.5 137.9,204 		"/>
		<polygon class="st134" points="83.2,217.5 75.4,213 75.4,222 83.2,226.5 91,231.1 91,222 		"/>
		<polygon class="st135" points="137.9,258.3 145.7,262.8 145.7,253.7 137.9,249.2 		"/>
		<polygon class="st136" points="130.1,199.4 130.1,190.4 122.3,185.9 122.3,194.9 		"/>
		<polygon class="st136" points="122.3,194.9 122.3,185.9 114.5,181.3 114.5,190.4 		"/>
		<polygon class="st136" points="137.9,204 137.9,194.9 130.1,190.4 130.1,199.4 		"/>
		<polygon class="st160" points="137.9,213 130.1,208.5 130.1,217.5 137.9,222.1 145.7,226.6 145.7,217.5 		"/>
		<polygon class="st156" points="137.9,222.1 130.1,217.5 130.1,226.6 122.3,222.1 122.3,231.1 130.1,235.6 137.9,240.2 
			137.9,231.1 145.7,235.6 145.7,226.6 		"/>
		<polygon class="st163" points="130.1,199.4 122.3,194.9 122.3,204 122.3,213 130.1,217.5 130.1,208.5 137.9,213 137.9,204 		"/>
		<polygon class="st156" points="91,194.9 83.2,190.3 83.2,199.4 91,203.9 		"/>
		<polygon class="st163" points="83.2,199.4 83.2,208.4 75.4,203.9 75.4,213 83.2,217.5 91,222 91,213 91,203.9 		"/>
		<polygon class="st164" points="91,185.8 83.2,181.3 83.2,190.3 91,194.9 		"/>
		<polygon class="st156" points="98.8,181.3 98.8,172.3 91,167.7 91,176.8 		"/>
		<polygon class="st165" points="106.7,176.8 98.8,172.3 98.8,181.3 106.7,185.8 114.5,190.4 114.5,181.3 		"/>
		<polygon class="st161" points="91,176.8 83.2,172.2 83.2,181.3 91,185.8 		"/>
		<polygon class="st137" points="91,167.7 83.2,163.2 83.2,172.2 91,176.8 		"/>
		<polygon class="st136" points="114.5,199.4 114.5,190.4 106.7,185.8 106.7,194.9 		"/>
		<polygon class="st166" points="59.8,149.6 51.9,145.1 51.9,154.1 59.8,158.6 		"/>
		<polygon class="st167" points="59.8,140.5 51.9,136 51.9,145.1 59.8,149.6 		"/>
		<polygon class="st160" points="59.8,167.7 51.9,163.2 51.9,172.2 59.8,176.7 		"/>
		<polygon class="st168" points="59.8,158.6 51.9,154.1 51.9,163.2 59.8,167.7 		"/>
		<polygon class="st169" points="59.8,131.5 51.9,127 51.9,136 59.8,140.5 		"/>
		<polygon class="st170" points="67.6,127 67.6,117.9 59.8,113.4 59.8,122.4 		"/>
		<polygon class="st171" points="59.8,122.4 51.9,117.9 51.9,127 59.8,131.5 		"/>
		<polygon class="st171" points="59.8,113.4 51.9,108.9 51.9,117.9 59.8,122.4 		"/>
		<polygon class="st145" points="59.8,212.9 51.9,208.4 51.9,217.5 59.8,222 		"/>
		<polygon class="st158" points="51.9,217.5 51.9,226.5 51.9,235.6 59.8,240.1 59.8,231 59.8,222 		"/>
		<polygon class="st172" points="75.4,131.5 75.4,122.5 67.6,117.9 67.6,127 		"/>
		<polygon class="st145" points="59.8,185.8 51.9,181.3 51.9,190.3 59.8,194.8 		"/>
		<polygon class="st158" points="51.9,190.3 51.9,199.4 51.9,208.4 59.8,212.9 59.8,203.9 59.8,194.8 		"/>
		<polygon class="st173" points="137.9,167.8 137.9,158.7 130.1,154.2 130.1,163.2 		"/>
		<polygon class="st174" points="169.2,185.9 169.2,176.9 161.4,172.3 161.4,181.4 		"/>
		<polygon class="st175" points="145.7,172.3 145.7,163.3 137.9,158.7 137.9,167.8 		"/>
		<polygon class="st176" points="153.6,176.8 153.6,167.8 145.7,163.3 145.7,172.3 		"/>
		<polygon class="st177" points="161.4,181.4 161.4,172.3 153.6,167.8 153.6,176.8 		"/>
		<polygon class="st136" points="161.4,208.5 169.2,213 169.2,204 161.4,199.5 		"/>
		<polygon class="st178" points="161.4,199.5 169.2,204 169.2,195 161.4,190.4 		"/>
		<polygon class="st179" points="83.2,136 83.2,127 75.4,122.5 75.4,131.5 		"/>
		<polygon class="st180" points="161.4,190.4 169.2,195 169.2,185.9 161.4,181.4 		"/>
		<polygon class="st181" points="98.8,145.1 98.8,136.1 91,131.5 91,140.6 		"/>
		<polygon class="st182" points="91,140.6 91,131.5 83.2,127 83.2,136 		"/>
		<polygon class="st183" points="106.7,149.6 106.7,140.6 98.8,136.1 98.8,145.1 		"/>
		<polygon class="st184" points="130.1,163.2 130.1,154.2 122.3,149.7 122.3,158.7 		"/>
		<polygon class="st185" points="114.5,154.2 114.5,145.1 106.7,140.6 106.7,149.6 		"/>
		<polygon class="st186" points="122.3,158.7 122.3,149.7 114.5,145.1 114.5,154.2 		"/>
		<polygon class="st158" points="169.2,276.4 177,280.9 177,271.8 169.2,267.3 		"/>
		<polygon class="st158" points="169.2,258.3 177,262.8 177,253.8 169.2,249.2 		"/>
		<polygon class="st187" points="169.2,267.3 177,271.8 177,262.8 169.2,258.3 		"/>
		<polygon class="st136" points="161.4,217.6 169.2,222.1 169.2,213 161.4,208.5 		"/>
		<polygon class="st188" points="169.2,285.4 177,289.9 177,280.9 169.2,276.4 		"/>
		<polygon class="st189" points="169.2,195 177,199.5 177,190.4 169.2,185.9 		"/>
		<polygon class="st136" points="169.2,204 177,208.5 177,199.5 169.2,195 		"/>
		<polygon class="st190" points="169.2,176.9 169.2,185.9 177,190.4 177,181.4 		"/>
		<polygon class="st134" points="169.2,231.1 177,235.7 177,226.6 169.2,222.1 		"/>
		<polygon class="st163" points="169.2,204 169.2,213 169.2,222.1 177,226.6 177,217.6 177,208.5 		"/>
		<polygon class="st158" points="106.7,276.3 106.7,285.4 114.5,289.9 114.5,280.9 		"/>
		<polygon class="st191" points="83.2,262.7 75.4,258.2 75.4,267.3 83.2,271.8 91,276.3 91,267.3 		"/>
		<polygon class="st192" points="169.2,321.6 177,326.1 177,317.1 169.2,312.6 		"/>
		<polygon class="st158" points="91,267.3 91,276.3 98.8,280.8 98.8,271.8 		"/>
		<polygon class="st145" points="51.9,235.6 51.9,244.6 51.9,253.7 59.8,258.2 59.8,249.1 59.8,240.1 		"/>
		<polygon class="st158" points="59.8,249.1 59.8,258.2 67.6,262.7 67.6,253.7 		"/>
		<polygon class="st134" points="67.6,253.7 67.6,262.7 75.4,267.3 75.4,258.2 		"/>
		<polygon class="st193" points="98.8,271.8 98.8,280.8 106.7,285.4 106.7,276.3 		"/>
		<polygon class="st158" points="161.4,308 161.4,317.1 169.2,321.6 169.2,312.6 		"/>
		<polygon class="st191" points="153.6,303.5 145.7,299 145.7,308 153.6,312.5 161.4,317.1 161.4,308 		"/>
		<polygon class="st191" points="122.3,285.4 114.5,280.9 114.5,289.9 122.3,294.4 130.1,299 130.1,289.9 		"/>
		<polygon class="st135" points="122.3,267.3 122.3,276.3 130.1,280.9 130.1,271.8 		"/>
		<polygon class="st158" points="130.1,289.9 130.1,299 137.9,303.5 137.9,294.4 		"/>
		<polygon class="st158" points="137.9,294.4 137.9,303.5 145.7,308 145.7,299 		"/>
		<polygon class="st194" points="122.3,167.8 122.3,158.7 114.5,154.2 114.5,163.2 		"/>
		<polygon class="st195" points="130.1,172.3 130.1,163.2 122.3,158.7 122.3,167.8 		"/>
		<polygon class="st196" points="114.5,163.2 114.5,154.2 106.7,149.6 106.7,158.7 		"/>
		<polygon class="st183" points="153.6,185.9 153.6,176.8 145.7,172.3 145.7,181.4 		"/>
		<polygon class="st197" points="137.9,176.8 137.9,167.8 130.1,163.2 130.1,172.3 		"/>
		<polygon class="st198" points="106.7,158.7 106.7,149.6 98.8,145.1 98.8,154.2 		"/>
		<polygon class="st199" points="145.7,181.4 145.7,172.3 137.9,167.8 137.9,176.8 		"/>
		<polygon class="st200" points="67.6,136 59.8,131.5 59.8,140.5 67.6,145.1 		"/>
		<polygon class="st201" points="161.4,190.4 161.4,181.4 153.6,176.8 153.6,185.9 		"/>
		<polygon class="st202" points="67.6,127 59.8,122.4 59.8,131.5 67.6,136 		"/>
		<polygon class="st203" points="67.6,145.1 59.8,140.5 59.8,149.6 67.6,154.1 		"/>
		<polygon class="st204" points="75.4,140.6 75.4,131.5 67.6,127 67.6,136 		"/>
		<polygon class="st205" points="91,149.6 91,140.6 83.2,136 83.2,145.1 		"/>
		<polygon class="st170" points="83.2,145.1 83.2,136 75.4,131.5 75.4,140.6 		"/>
		<polygon class="st200" points="98.8,154.2 98.8,145.1 91,140.6 91,149.6 		"/>
		<polygon class="st136" points="153.6,204 161.4,208.5 161.4,199.5 153.6,194.9 		"/>
		<polygon class="st134" points="153.6,294.5 161.4,299 161.4,289.9 153.6,285.4 		"/>
		<polygon class="st206" points="153.6,258.3 145.7,253.7 145.7,262.8 153.6,267.3 153.6,276.4 161.4,280.9 161.4,271.8 
			161.4,262.8 		"/>
		<polygon class="st134" points="130.1,271.8 130.1,280.9 137.9,285.4 137.9,276.3 		"/>
		<polygon class="st135" points="137.9,276.3 137.9,285.4 145.7,289.9 145.7,280.9 		"/>
		<polygon class="st134" points="153.6,249.2 145.7,244.7 145.7,253.7 153.6,258.3 161.4,262.8 161.4,253.7 		"/>
		<polygon class="st191" points="153.6,213 161.4,217.6 161.4,208.5 153.6,204 		"/>
		<polygon class="st207" points="67.6,154.1 59.8,149.6 59.8,158.6 67.6,163.2 		"/>
		<polygon class="st208" points="153.6,194.9 161.4,199.5 161.4,190.4 153.6,185.9 		"/>
		<polygon class="st206" points="153.6,231.1 161.4,235.7 161.4,226.6 153.6,222.1 		"/>
		<polygon class="st209" points="106.7,267.3 106.7,276.3 114.5,280.9 114.5,271.8 		"/>
		<polygon class="st210" points="169.2,294.5 161.4,289.9 161.4,299 161.4,308 169.2,312.6 177,317.1 177,308 177,299 		"/>
		<polygon class="st158" points="161.4,289.9 161.4,280.9 153.6,276.4 145.7,271.8 145.7,262.8 137.9,258.3 137.9,267.3 
			130.1,262.8 122.3,258.2 114.5,253.7 106.7,249.2 106.7,258.2 114.5,262.8 114.5,271.8 122.3,276.3 122.3,267.3 130.1,271.8 
			137.9,276.3 145.7,280.9 145.7,289.9 145.7,299 153.6,303.5 161.4,308 161.4,299 153.6,294.5 153.6,285.4 		"/>
		<polygon class="st158" points="130.1,280.9 130.1,289.9 137.9,294.4 137.9,285.4 		"/>
		<polygon class="st191" points="137.9,285.4 137.9,294.4 145.7,299 145.7,289.9 		"/>
		<polygon class="st134" points="169.2,285.4 161.4,280.9 161.4,289.9 169.2,294.5 177,299 177,289.9 		"/>
		<polygon class="st136" points="161.4,253.7 169.2,258.3 169.2,249.2 161.4,244.7 		"/>
		<polygon class="st206" points="169.2,231.1 169.2,240.2 161.4,235.7 161.4,244.7 169.2,249.2 177,253.8 177,244.7 177,235.7 		"/>
		<polygon class="st158" points="161.4,262.8 169.2,267.3 169.2,258.3 161.4,253.7 		"/>
		<polygon class="st158" points="161.4,280.9 169.2,285.4 169.2,276.4 161.4,271.8 		"/>
		<polygon class="st134" points="122.3,276.3 114.5,271.8 114.5,280.9 122.3,285.4 130.1,289.9 130.1,280.9 		"/>
		<polygon class="st211" points="161.4,271.8 169.2,276.4 169.2,267.3 161.4,262.8 		"/>
		<polygon class="st145" points="67.6,235.6 59.8,231 59.8,240.1 67.6,244.6 		"/>
		<polygon class="st145" points="59.8,194.8 59.8,203.9 59.8,212.9 67.6,217.5 67.6,208.4 67.6,199.4 		"/>
		<polygon class="st143" points="67.6,226.5 59.8,222 59.8,231 67.6,235.6 		"/>
		<polygon class="st158" points="67.6,208.4 67.6,217.5 59.8,212.9 59.8,222 67.6,226.5 75.4,231.1 75.4,222 75.4,213 		"/>
		<polygon class="st163" points="161.4,217.6 153.6,213 153.6,204 153.6,194.9 145.7,190.4 145.7,199.5 145.7,208.5 145.7,217.5 
			145.7,226.6 145.7,235.6 137.9,231.1 137.9,240.2 130.1,235.6 122.3,231.1 122.3,222.1 114.5,217.5 114.5,226.6 106.7,222 
			106.7,231.1 114.5,235.6 122.3,240.1 130.1,244.7 137.9,249.2 145.7,253.7 145.7,244.7 153.6,249.2 161.4,253.7 161.4,244.7 
			161.4,235.7 153.6,231.1 153.6,222.1 161.4,226.6 161.4,235.7 169.2,240.2 169.2,231.1 169.2,222.1 		"/>
		<polygon class="st161" points="75.4,176.8 67.6,172.2 59.8,167.7 59.8,176.7 51.9,172.2 51.9,181.3 59.8,185.8 59.8,194.8 
			67.6,199.4 75.4,203.9 75.4,194.9 67.6,190.3 67.6,181.3 75.4,185.8 83.2,190.3 83.2,181.3 		"/>
		<polygon class="st158" points="91,249.2 83.2,244.6 83.2,235.6 75.4,231.1 75.4,240.1 67.6,235.6 67.6,244.6 75.4,249.2 
			83.2,253.7 83.2,262.7 91,267.3 91,258.2 98.8,262.8 98.8,253.7 		"/>
		<polygon class="st209" points="91,258.2 91,267.3 98.8,271.8 98.8,262.8 		"/>
		<polygon class="st158" points="98.8,262.8 98.8,271.8 106.7,276.3 106.7,267.3 		"/>
		<polygon class="st212" points="67.6,163.2 59.8,158.6 59.8,167.7 67.6,172.2 		"/>
		<polygon class="st158" points="59.8,240.1 59.8,249.1 67.6,253.7 67.6,244.6 		"/>
		<polygon class="st134" points="75.4,249.2 75.4,258.2 83.2,262.7 83.2,253.7 		"/>
		<polygon class="st143" points="67.6,244.6 67.6,253.7 75.4,258.2 75.4,249.2 		"/>
		<polygon class="st160" points="75.4,185.8 67.6,181.3 67.6,190.3 75.4,194.9 83.2,199.4 83.2,190.3 		"/>
	</g>
	<g>
		<polygon class="st213" points="223.8,262.9 223.8,271.9 231.6,267.4 231.6,258.4 		"/>
		<polygon class="st214" points="231.6,258.4 231.6,267.4 239.5,262.9 239.5,253.8 		"/>
		<polygon class="st214" points="239.5,253.8 239.5,262.9 247.3,258.4 247.3,249.3 		"/>
		<polygon class="st214" points="200.4,276.4 200.4,285.5 208.2,280.9 208.2,271.9 		"/>
		<polygon class="st214" points="247.3,249.3 247.3,258.4 255.1,253.9 255.1,244.8 		"/>
		<polygon class="st215" points="208.2,271.9 208.2,280.9 216,276.4 216,267.4 		"/>
		<polygon class="st215" points="216,267.4 216,276.4 223.8,271.9 223.8,262.9 		"/>
		<polygon class="st214" points="255.1,244.8 255.1,253.9 262.9,249.3 262.9,240.3 		"/>
		<polygon class="st216" points="270.7,226.7 278.6,222.2 278.6,213.1 270.7,217.6 		"/>
		<polygon class="st217" points="270.7,163.3 270.7,154.2 262.9,158.7 262.9,167.8 		"/>
		<polygon class="st215" points="208.2,262.8 200.4,267.4 200.4,276.4 208.2,271.9 		"/>
		<polygon class="st218" points="270.7,208.6 278.6,204 278.6,195 270.7,199.5 		"/>
		<polygon class="st214" points="239.5,262.9 239.5,271.9 247.3,267.4 247.3,258.4 		"/>
		<polygon class="st214" points="270.7,244.8 278.6,240.3 278.6,231.2 270.7,235.8 		"/>
		<polygon class="st219" points="270.7,235.8 278.6,231.2 278.6,222.2 270.7,226.7 		"/>
		<polygon class="st220" points="270.7,217.6 278.6,213.1 278.6,204 270.7,208.6 		"/>
		<polygon class="st217" points="231.6,185.9 231.6,176.9 223.8,181.4 223.8,190.4 		"/>
		<polygon class="st213" points="208.2,253.8 200.4,258.3 200.4,267.4 208.2,262.8 		"/>
		<polygon class="st217" points="223.8,190.4 223.8,181.4 216,185.9 216,195 		"/>
		<polygon class="st221" points="216,195 216,185.9 208.2,190.4 208.2,199.5 		"/>
		<polygon class="st222" points="262.9,167.8 262.9,158.7 255.1,163.3 255.1,172.3 		"/>
		<polygon class="st223" points="247.3,176.9 247.3,167.8 239.5,172.3 239.5,181.4 		"/>
		<polygon class="st217" points="255.1,172.3 255.1,163.3 247.3,167.8 247.3,176.9 		"/>
		<polygon class="st217" points="239.5,181.4 239.5,172.3 231.6,176.9 231.6,185.9 		"/>
		<polygon class="st216" points="208.2,235.7 200.4,240.2 200.4,249.3 208.2,244.7 		"/>
		<polygon class="st217" points="208.2,190.4 200.4,195 200.4,204 208.2,199.5 		"/>
		<polygon class="st224" points="208.2,226.6 200.4,231.2 200.4,240.2 208.2,235.7 		"/>
		<polygon class="st225" points="208.2,244.7 200.4,249.3 200.4,258.3 208.2,253.8 		"/>
		<polygon class="st224" points="208.2,199.5 200.4,204 200.4,213.1 208.2,208.5 		"/>
		<polygon class="st214" points="208.2,217.6 200.4,222.1 200.4,231.2 208.2,226.6 		"/>
		<polygon class="st216" points="208.2,208.5 200.4,213.1 200.4,222.1 208.2,217.6 		"/>
		<polygon class="st218" points="270.7,199.5 278.6,195 278.6,185.9 270.7,190.4 		"/>
		<polygon class="st226" points="200.4,267.4 192.6,271.9 192.6,280.9 200.4,276.4 		"/>
		<polygon class="st226" points="200.4,258.3 192.6,262.8 192.6,271.9 200.4,267.4 		"/>
		<polygon class="st216" points="200.4,204 192.6,208.5 192.6,217.6 200.4,213.1 		"/>
		<polygon class="st227" points="200.4,249.3 192.6,253.8 192.6,262.8 200.4,258.3 		"/>
		<polygon class="st224" points="200.4,231.2 192.6,235.7 192.6,244.7 200.4,240.2 		"/>
		<polygon class="st216" points="200.4,213.1 192.6,217.6 192.6,226.6 200.4,222.1 		"/>
		<polygon class="st214" points="200.4,222.1 192.6,226.6 192.6,235.7 200.4,231.2 		"/>
		<polygon class="st214" points="200.4,240.2 192.6,244.7 192.6,253.8 200.4,249.3 		"/>
		<polygon class="st216" points="200.4,276.4 192.6,280.9 192.6,290 200.4,285.5 		"/>
		<polygon class="st215" points="223.8,271.9 223.8,281 231.6,276.5 231.6,267.4 		"/>
		<polygon class="st215" points="231.6,267.4 231.6,276.5 239.5,271.9 239.5,262.9 		"/>
		<polygon class="st214" points="216,276.4 216,285.5 223.8,281 223.8,271.9 		"/>
		<polygon class="st214" points="208.2,280.9 208.2,290 216,285.5 216,276.4 		"/>
		<polygon class="st214" points="192.6,290 192.6,299 200.4,294.5 200.4,285.5 		"/>
		<polygon class="st214" points="200.4,285.5 200.4,294.5 208.2,290 208.2,280.9 		"/>
		<polygon class="st228" points="262.9,158.7 262.9,149.7 255.1,154.2 255.1,163.3 		"/>
		<polygon class="st228" points="270.7,154.2 270.7,145.1 262.9,149.7 262.9,158.7 		"/>
		<polygon class="st218" points="270.7,190.4 278.6,185.9 278.6,176.9 270.7,181.4 		"/>
		<polygon class="st229" points="255.1,163.3 255.1,154.2 247.3,158.7 247.3,167.8 		"/>
		<polygon class="st217" points="200.4,195 192.6,199.5 192.6,208.5 200.4,204 		"/>
		<polygon class="st218" points="270.7,181.4 278.6,176.9 278.6,167.8 270.7,172.3 		"/>
		<polygon class="st214" points="270.7,163.3 278.6,158.7 278.6,149.7 270.7,154.2 		"/>
		<polygon class="st218" points="270.7,172.3 278.6,167.8 278.6,158.7 270.7,163.3 		"/>
		<polygon class="st227" points="278.6,149.7 278.6,140.6 270.7,145.1 270.7,154.2 		"/>
		<polygon class="st230" points="208.2,190.4 208.2,181.4 200.4,185.9 200.4,195 		"/>
		<polygon class="st221" points="216,185.9 216,176.9 208.2,181.4 208.2,190.4 		"/>
		<polygon class="st231" points="200.4,185.9 192.6,190.4 192.6,199.5 200.4,195 		"/>
		<polygon class="st217" points="239.5,172.3 239.5,163.3 231.6,167.8 231.6,176.9 		"/>
		<polygon class="st232" points="247.3,167.8 247.3,158.7 239.5,163.3 239.5,172.3 		"/>
		<polygon class="st233" points="231.6,176.9 231.6,167.8 223.8,172.3 223.8,181.4 		"/>
		<polygon class="st217" points="223.8,181.4 223.8,172.3 216,176.9 216,185.9 		"/>
		<polygon class="st214" points="262.9,240.3 262.9,249.3 270.7,244.8 270.7,235.8 		"/>
		<polygon class="st218" points="223.8,208.5 216,213.1 216,222.1 223.8,217.6 		"/>
		<polygon class="st234" points="231.6,204 231.6,195 223.8,199.5 223.8,208.5 		"/>
		<polygon class="st235" points="247.3,204 255.1,199.5 255.1,190.4 247.3,195 		"/>
		<polygon class="st216" points="223.8,217.6 216,222.1 216,231.2 223.8,226.7 		"/>
		<polygon class="st236" points="223.8,199.5 216,204 216,213.1 223.8,208.5 		"/>
		<polygon class="st218" points="255.1,226.7 262.9,222.2 262.9,213.1 255.1,217.6 		"/>
		<polygon class="st234" points="247.3,195 247.3,185.9 239.5,190.4 239.5,199.5 		"/>
		<polygon class="st234" points="239.5,199.5 239.5,190.4 231.6,195 231.6,204 		"/>
		<polygon class="st216" points="223.8,226.7 216,231.2 216,240.2 223.8,235.7 		"/>
		<polygon class="st219" points="239.5,235.7 239.5,244.8 247.3,240.3 247.3,231.2 		"/>
		<polygon class="st213" points="247.3,231.2 247.3,240.3 255.1,235.7 255.1,226.7 		"/>
		<polygon class="st213" points="255.1,235.7 262.9,231.2 262.9,222.2 255.1,226.7 		"/>
		<polygon class="st213" points="223.8,244.8 223.8,253.8 231.6,249.3 231.6,240.2 		"/>
		<polygon class="st237" points="231.6,240.2 231.6,249.3 239.5,244.8 239.5,235.7 		"/>
		<polygon class="st214" points="216,249.3 216,258.3 223.8,253.8 223.8,244.8 		"/>
		<polygon class="st219" points="223.8,235.7 216,240.2 216,249.3 223.8,244.8 		"/>
		<polygon class="st235" points="255.1,190.4 255.1,181.4 247.3,185.9 247.3,195 		"/>
		<polygon class="st238" points="247.3,213.1 255.1,208.6 255.1,199.5 247.3,204 		"/>
		<polygon class="st239" points="247.3,204 247.3,195 239.5,199.5 239.5,208.6 		"/>
		<polygon class="st239" points="239.5,208.6 239.5,199.5 231.6,204 231.6,213.1 		"/>
		<polygon class="st240" points="262.9,176.9 270.7,172.3 270.7,163.3 262.9,167.8 		"/>
		<polygon class="st218" points="239.5,208.6 231.6,213.1 231.6,222.1 239.5,217.6 		"/>
		<polygon class="st219" points="231.6,222.1 231.6,231.2 239.5,226.7 239.5,217.6 		"/>
		<polygon class="st218" points="239.5,226.7 247.3,222.1 247.3,213.1 239.5,217.6 		"/>
		<polygon class="st218" points="231.6,204 223.8,208.5 223.8,217.6 231.6,213.1 		"/>
		<polygon class="st218" points="231.6,213.1 223.8,217.6 223.8,226.7 231.6,222.1 		"/>
		<polygon class="st218" points="247.3,231.2 255.1,226.7 255.1,217.6 247.3,222.1 		"/>
		<polygon class="st237" points="247.3,222.1 255.1,217.6 255.1,208.6 247.3,213.1 		"/>
		<polygon class="st218" points="239.5,226.7 239.5,235.7 247.3,231.2 247.3,222.1 		"/>
		<polygon class="st218" points="231.6,231.2 231.6,240.2 239.5,235.7 239.5,226.7 		"/>
		<polygon class="st218" points="231.6,222.1 223.8,226.7 223.8,235.7 231.6,231.2 		"/>
		<polygon class="st219" points="223.8,235.7 223.8,244.8 231.6,240.2 231.6,231.2 		"/>
		<polygon class="st237" points="239.5,217.6 247.3,213.1 247.3,204 239.5,208.6 		"/>
		<polygon class="st237" points="231.6,249.3 231.6,258.4 239.5,253.8 239.5,244.8 		"/>
		<polygon class="st240" points="239.5,244.8 239.5,253.8 247.3,249.3 247.3,240.3 		"/>
		<polygon class="st237" points="255.1,235.7 255.1,244.8 262.9,240.3 262.9,231.2 		"/>
		<polygon class="st237" points="247.3,240.3 247.3,249.3 255.1,244.8 255.1,235.7 		"/>
		<polygon class="st214" points="223.8,253.8 223.8,262.9 231.6,258.4 231.6,249.3 		"/>
		<polygon class="st215" points="208.2,262.8 208.2,271.9 216,267.4 216,258.3 		"/>
		<polygon class="st213" points="216,258.3 216,267.4 223.8,262.9 223.8,253.8 		"/>
		<polygon class="st237" points="262.9,204 270.7,199.5 270.7,190.4 262.9,195 		"/>
		<polygon class="st237" points="255.1,217.6 262.9,213.1 262.9,204 255.1,208.6 		"/>
		<polygon class="st214" points="262.9,240.3 270.7,235.8 270.7,226.7 262.9,231.2 		"/>
		<polygon class="st213" points="216,249.3 208.2,253.8 208.2,262.8 216,258.3 		"/>
		<polygon class="st217" points="262.9,185.9 270.7,181.4 270.7,172.3 262.9,176.9 		"/>
		<polygon class="st219" points="262.9,231.2 270.7,226.7 270.7,217.6 262.9,222.2 		"/>
		<polygon class="st218" points="262.9,213.1 270.7,208.6 270.7,199.5 262.9,204 		"/>
		<polygon class="st218" points="262.9,222.2 270.7,217.6 270.7,208.6 262.9,213.1 		"/>
		<polygon class="st239" points="262.9,195 270.7,190.4 270.7,181.4 262.9,185.9 		"/>
		<polygon class="st217" points="255.1,181.4 255.1,172.3 247.3,176.9 247.3,185.9 		"/>
		<polygon class="st217" points="262.9,176.9 262.9,167.8 255.1,172.3 255.1,181.4 		"/>
		<polygon class="st241" points="239.5,190.4 239.5,181.4 231.6,185.9 231.6,195 		"/>
		<polygon class="st217" points="247.3,185.9 247.3,176.9 239.5,181.4 239.5,190.4 		"/>
		<polygon class="st237" points="255.1,208.6 262.9,204 262.9,195 255.1,199.5 		"/>
		<polygon class="st235" points="255.1,190.4 262.9,185.9 262.9,176.9 255.1,181.4 		"/>
		<polygon class="st239" points="255.1,199.5 262.9,195 262.9,185.9 255.1,190.4 		"/>
		<polygon class="st242" points="216,213.1 208.2,217.6 208.2,226.6 216,222.1 		"/>
		<polygon class="st216" points="216,222.1 208.2,226.6 208.2,235.7 216,231.2 		"/>
		<polygon class="st225" points="216,240.2 208.2,244.7 208.2,253.8 216,249.3 		"/>
		<polygon class="st225" points="216,231.2 208.2,235.7 208.2,244.7 216,240.2 		"/>
		<polygon class="st241" points="231.6,195 231.6,185.9 223.8,190.4 223.8,199.5 		"/>
		<polygon class="st218" points="216,204 208.2,208.5 208.2,217.6 216,213.1 		"/>
		<polygon class="st236" points="223.8,199.5 223.8,190.4 216,195 216,204 		"/>
		<polygon class="st217" points="216,195 208.2,199.5 208.2,208.5 216,204 		"/>
		<polygon class="st243" points="200.4,185.9 200.4,176.9 192.6,181.4 192.6,190.4 		"/>
		<polygon class="st216" points="184.8,213.1 177,217.6 177,226.6 184.8,222.1 		"/>
		<polygon class="st224" points="184.8,231.1 177,235.7 177,244.7 184.8,240.2 		"/>
		<polygon class="st217" points="184.8,204 177,208.5 177,217.6 184.8,213.1 		"/>
		<polygon class="st214" points="184.8,222.1 177,226.6 177,235.7 184.8,231.1 		"/>
		<polygon class="st219" points="247.3,258.4 247.3,267.4 255.1,262.9 255.1,253.9 		"/>
		<polygon class="st244" points="192.6,181.4 192.6,172.3 184.8,176.9 184.8,185.9 		"/>
		<polygon class="st245" points="184.8,185.9 177,190.4 177,199.5 184.8,195 		"/>
		<polygon class="st216" points="184.8,303.5 177,308 177,317.1 184.8,312.6 		"/>
		<polygon class="st216" points="184.8,276.4 177,280.9 177,289.9 184.8,285.4 		"/>
		<polygon class="st226" points="184.8,285.4 177,289.9 177,299 184.8,294.5 		"/>
		<polygon class="st226" points="184.8,294.5 177,299 177,308 184.8,303.5 		"/>
		<polygon class="st216" points="184.8,249.2 177,253.8 177,262.8 184.8,258.3 		"/>
		<polygon class="st214" points="184.8,240.2 177,244.7 177,253.8 184.8,249.2 		"/>
		<polygon class="st214" points="184.8,267.3 177,271.8 177,280.9 184.8,276.4 		"/>
		<polygon class="st214" points="184.8,258.3 177,262.8 177,271.8 184.8,267.3 		"/>
		<polygon class="st227" points="286.4,154.2 294.2,149.7 294.2,140.6 286.4,145.1 		"/>
		<polygon class="st246" points="278.6,131.5 278.6,122.5 270.7,127 270.7,136.1 		"/>
		<polygon class="st247" points="270.7,136.1 270.7,127 262.9,131.6 262.9,140.6 		"/>
		<polygon class="st248" points="286.4,127 286.4,117.9 278.6,122.5 278.6,131.5 		"/>
		<polygon class="st249" points="286.4,145.1 294.2,140.6 294.2,131.5 286.4,136.1 		"/>
		<polygon class="st247" points="262.9,140.6 262.9,131.6 255.1,136.1 255.1,145.2 		"/>
		<polygon class="st250" points="294.2,122.5 294.2,113.4 286.4,117.9 286.4,127 		"/>
		<polygon class="st251" points="286.4,136.1 294.2,131.5 294.2,122.5 286.4,127 		"/>
		<polygon class="st252" points="255.1,145.2 255.1,136.1 247.3,140.6 247.3,149.7 		"/>
		<polygon class="st253" points="216,167.8 216,158.8 208.2,163.3 208.2,172.3 		"/>
		<polygon class="st232" points="223.8,163.3 223.8,154.2 216,158.8 216,167.8 		"/>
		<polygon class="st253" points="208.2,172.3 208.2,163.3 200.4,167.8 200.4,176.9 		"/>
		<polygon class="st254" points="247.3,149.7 247.3,140.6 239.5,145.2 239.5,154.2 		"/>
		<polygon class="st255" points="200.4,176.9 200.4,167.8 192.6,172.3 192.6,181.4 		"/>
		<polygon class="st256" points="239.5,154.2 239.5,145.2 231.6,149.7 231.6,158.8 		"/>
		<polygon class="st257" points="231.6,158.8 231.6,149.7 223.8,154.2 223.8,163.3 		"/>
		<polygon class="st254" points="184.8,195 177,199.5 177,208.5 184.8,204 		"/>
		<polygon class="st258" points="294.2,204 302.1,199.5 302.1,190.5 294.2,195 		"/>
		<polygon class="st214" points="294.2,213.1 302.1,208.6 302.1,199.5 294.2,204 		"/>
		<polygon class="st214" points="294.2,195 302.1,190.5 302.1,181.4 294.2,185.9 		"/>
		<polygon class="st220" points="294.2,231.2 302.1,226.7 302.1,217.7 294.2,222.2 		"/>
		<polygon class="st259" points="294.2,240.3 302.1,235.8 302.1,226.7 294.2,231.2 		"/>
		<polygon class="st259" points="294.2,249.4 302.1,244.9 302.1,235.8 294.2,240.3 		"/>
		<polygon class="st259" points="294.2,185.9 302.1,181.4 302.1,172.3 294.2,176.9 		"/>
		<polygon class="st217" points="294.2,222.2 302.1,217.7 302.1,208.6 294.2,213.1 		"/>
		<polygon class="st259" points="294.2,176.9 302.1,172.3 302.1,163.3 294.2,167.8 		"/>
		<polygon class="st260" points="294.2,113.4 294.2,122.5 302.1,117.9 302.1,108.9 		"/>
		<polygon class="st227" points="294.2,140.6 302.1,136.1 302.1,127 294.2,131.5 		"/>
		<polygon class="st256" points="294.2,131.5 302.1,127 302.1,117.9 294.2,122.5 		"/>
		<polygon class="st235" points="294.2,149.7 302.1,145.1 302.1,136.1 294.2,140.6 		"/>
		<polygon class="st261" points="294.2,167.8 302.1,163.3 302.1,154.2 294.2,158.7 		"/>
		<polygon class="st235" points="294.2,158.7 302.1,154.2 302.1,145.1 294.2,149.7 		"/>
		<polygon class="st226" points="231.6,285.5 231.6,294.6 239.5,290.1 239.5,281 		"/>
		<polygon class="st226" points="216,294.5 216,303.6 223.8,299.1 223.8,290 		"/>
		<polygon class="st262" points="177,317.1 177,326.1 184.8,321.6 184.8,312.6 		"/>
		<polygon class="st263" points="223.8,290 223.8,299.1 231.6,294.6 231.6,285.5 		"/>
		<polygon class="st264" points="208.2,299.1 208.2,308.1 216,303.6 216,294.5 		"/>
		<polygon class="st226" points="184.8,312.6 184.8,321.6 192.6,317.1 192.6,308.1 		"/>
		<polygon class="st264" points="200.4,303.6 200.4,312.6 208.2,308.1 208.2,299.1 		"/>
		<polygon class="st265" points="192.6,308.1 192.6,317.1 200.4,312.6 200.4,303.6 		"/>
		<polygon class="st216" points="239.5,281 239.5,290.1 247.3,285.5 247.3,276.5 		"/>
		<polygon class="st259" points="270.7,262.9 270.7,272 278.6,267.5 278.6,258.4 		"/>
		<polygon class="st259" points="278.6,258.4 278.6,267.5 286.4,263 286.4,253.9 		"/>
		<polygon class="st266" points="286.4,253.9 286.4,263 294.2,258.4 294.2,249.4 		"/>
		<polygon class="st217" points="294.2,258.4 302.1,253.9 302.1,244.9 294.2,249.4 		"/>
		<polygon class="st216" points="247.3,276.5 247.3,285.5 255.1,281 255.1,272 		"/>
		<polygon class="st214" points="255.1,272 255.1,281 262.9,276.5 262.9,267.5 		"/>
		<polygon class="st214" points="262.9,267.5 262.9,276.5 270.7,272 270.7,262.9 		"/>
		<polygon class="st245" points="184.8,176.9 177,181.4 177,190.4 184.8,185.9 		"/>
		<polygon class="st228" points="255.1,154.2 255.1,145.2 247.3,149.7 247.3,158.7 		"/>
		<polygon class="st227" points="286.4,163.3 294.2,158.7 294.2,149.7 286.4,154.2 		"/>
		<polygon class="st267" points="231.6,167.8 231.6,158.8 223.8,163.3 223.8,172.3 		"/>
		<polygon class="st268" points="239.5,163.3 239.5,154.2 231.6,158.8 231.6,167.8 		"/>
		<polygon class="st269" points="278.6,140.6 278.6,131.5 270.7,136.1 270.7,145.1 		"/>
		<polygon class="st228" points="262.9,149.7 262.9,140.6 255.1,145.2 255.1,154.2 		"/>
		<polygon class="st260" points="270.7,145.1 270.7,136.1 262.9,140.6 262.9,149.7 		"/>
		<polygon class="st214" points="192.6,208.5 184.8,213.1 184.8,222.1 192.6,217.6 		"/>
		<polygon class="st270" points="192.6,199.5 184.8,204 184.8,213.1 192.6,208.5 		"/>
		<polygon class="st217" points="192.6,190.4 184.8,195 184.8,204 192.6,199.5 		"/>
		<polygon class="st271" points="286.4,136.1 286.4,127 278.6,131.5 278.6,140.6 		"/>
		<polygon class="st272" points="208.2,181.4 208.2,172.3 200.4,176.9 200.4,185.9 		"/>
		<polygon class="st245" points="192.6,181.4 184.8,185.9 184.8,195 192.6,190.4 		"/>
		<polygon class="st273" points="216,176.9 216,167.8 208.2,172.3 208.2,181.4 		"/>
		<polygon class="st217" points="223.8,172.3 223.8,163.3 216,167.8 216,176.9 		"/>
		<polygon class="st213" points="255.1,253.9 255.1,262.9 262.9,258.4 262.9,249.3 		"/>
		<polygon class="st214" points="278.6,240.3 286.4,235.8 286.4,226.7 278.6,231.2 		"/>
		<polygon class="st216" points="278.6,222.2 286.4,217.6 286.4,208.6 278.6,213.1 		"/>
		<polygon class="st216" points="278.6,231.2 286.4,226.7 286.4,217.6 278.6,222.2 		"/>
		<polygon class="st220" points="278.6,249.4 286.4,244.8 286.4,235.8 278.6,240.3 		"/>
		<polygon class="st274" points="192.6,217.6 184.8,222.1 184.8,231.1 192.6,226.6 		"/>
		<polygon class="st219" points="262.9,249.3 262.9,258.4 270.7,253.9 270.7,244.8 		"/>
		<polygon class="st214" points="270.7,244.8 270.7,253.9 278.6,249.4 278.6,240.3 		"/>
		<polygon class="st259" points="278.6,185.9 286.4,181.4 286.4,172.3 278.6,176.9 		"/>
		<polygon class="st275" points="278.6,167.8 286.4,163.3 286.4,154.2 278.6,158.7 		"/>
		<polygon class="st218" points="278.6,176.9 286.4,172.3 286.4,163.3 278.6,167.8 		"/>
		<polygon class="st220" points="278.6,213.1 286.4,208.6 286.4,199.5 278.6,204 		"/>
		<polygon class="st227" points="278.6,158.7 286.4,154.2 286.4,145.1 278.6,149.7 		"/>
		<polygon class="st218" points="278.6,204 286.4,199.5 286.4,190.5 278.6,195 		"/>
		<polygon class="st276" points="278.6,149.7 286.4,145.1 286.4,136.1 278.6,140.6 		"/>
		<polygon class="st218" points="278.6,195 286.4,190.5 286.4,181.4 278.6,185.9 		"/>
		<polygon class="st268" points="247.3,158.7 247.3,149.7 239.5,154.2 239.5,163.3 		"/>
		<polygon class="st259" points="286.4,253.9 294.2,249.4 294.2,240.3 286.4,244.8 		"/>
		<polygon class="st259" points="286.4,244.8 294.2,240.3 294.2,231.2 286.4,235.8 		"/>
		<polygon class="st214" points="278.6,249.4 278.6,258.4 286.4,253.9 286.4,244.8 		"/>
		<polygon class="st214" points="192.6,226.6 184.8,231.1 184.8,240.2 192.6,235.7 		"/>
		<polygon class="st214" points="270.7,253.9 270.7,262.9 278.6,258.4 278.6,249.4 		"/>
		<polygon class="st220" points="286.4,235.8 294.2,231.2 294.2,222.2 286.4,226.7 		"/>
		<polygon class="st277" points="262.9,258.4 262.9,267.5 270.7,262.9 270.7,253.9 		"/>
		<polygon class="st214" points="255.1,262.9 255.1,272 262.9,267.5 262.9,258.4 		"/>
		<polygon class="st218" points="286.4,181.4 294.2,176.9 294.2,167.8 286.4,172.3 		"/>
		<polygon class="st214" points="286.4,226.7 294.2,222.2 294.2,213.1 286.4,217.6 		"/>
		<polygon class="st218" points="286.4,172.3 294.2,167.8 294.2,158.7 286.4,163.3 		"/>
		<polygon class="st259" points="286.4,190.5 294.2,185.9 294.2,176.9 286.4,181.4 		"/>
		<polygon class="st278" points="286.4,217.6 294.2,213.1 294.2,204 286.4,208.6 		"/>
		<polygon class="st214" points="286.4,208.6 294.2,204 294.2,195 286.4,199.5 		"/>
		<polygon class="st217" points="286.4,199.5 294.2,195 294.2,185.9 286.4,190.5 		"/>
		<polygon class="st213" points="247.3,267.4 247.3,276.5 255.1,272 255.1,262.9 		"/>
		<polygon class="st216" points="192.6,262.8 184.8,267.3 184.8,276.4 192.6,271.9 		"/>
		<polygon class="st226" points="192.6,271.9 184.8,276.4 184.8,285.4 192.6,280.9 		"/>
		<polygon class="st279" points="192.6,290 184.8,294.5 184.8,303.5 192.6,299 		"/>
		<polygon class="st227" points="192.6,280.9 184.8,285.4 184.8,294.5 192.6,290 		"/>
		<polygon class="st214" points="192.6,235.7 184.8,240.2 184.8,249.2 192.6,244.7 		"/>
		<polygon class="st216" points="192.6,253.8 184.8,258.3 184.8,267.3 192.6,262.8 		"/>
		<polygon class="st213" points="239.5,271.9 239.5,281 247.3,276.5 247.3,267.4 		"/>
		<polygon class="st214" points="192.6,244.7 184.8,249.2 184.8,258.3 192.6,253.8 		"/>
		<polygon class="st214" points="223.8,281 223.8,290 231.6,285.5 231.6,276.5 		"/>
		<polygon class="st227" points="231.6,276.5 231.6,285.5 239.5,281 239.5,271.9 		"/>
		<polygon class="st226" points="184.8,303.5 184.8,312.6 192.6,308.1 192.6,299 		"/>
		<polygon class="st227" points="216,285.5 216,294.5 223.8,290 223.8,281 		"/>
		<polygon class="st227" points="192.6,299 192.6,308.1 200.4,303.6 200.4,294.5 		"/>
		<polygon class="st265" points="200.4,294.5 200.4,303.6 208.2,299.1 208.2,290 		"/>
		<polygon class="st214" points="208.2,290 208.2,299.1 216,294.5 216,285.5 		"/>
	</g>
</g>
</svg>
